<mxfile host="app.diagrams.net" agent="Mozilla/5.0 (Windows NT 10.0; Win64; x64) AppleWebKit/537.36 (KHTML, like Gecko) Chrome/131.0.0.0 Safari/537.36 Edg/131.0.0.0" version="25.0.3">
  <diagram id="kiMMVvQOlkDCGdLv_i5A" name="Página-1">
    <mxGraphModel dx="1426" dy="791" grid="1" gridSize="10" guides="1" tooltips="1" connect="1" arrows="1" fold="1" page="1" pageScale="1" pageWidth="827" pageHeight="1169" math="0" shadow="0">
      <root>
        <mxCell id="0" />
        <mxCell id="1" parent="0" />
        <mxCell id="ipMqHxaG9Kqk90G_pu0r-243" value="&lt;font style=&quot;font-size: 9px;&quot;&gt;Titulo&lt;/font&gt;" style="ellipse;whiteSpace=wrap;html=1;fillColor=#fff2cc;strokeColor=#d6b656;" parent="1" vertex="1">
          <mxGeometry x="60" y="750" width="80" height="50" as="geometry" />
        </mxCell>
        <mxCell id="ipMqHxaG9Kqk90G_pu0r-1" value="&lt;b&gt;&lt;font style=&quot;font-size: 10px;&quot;&gt;CATEGORIAS&lt;/font&gt;&lt;/b&gt;" style="whiteSpace=wrap;html=1;aspect=fixed;fillColor=#dae8fc;strokeColor=#6c8ebf;" parent="1" vertex="1">
          <mxGeometry x="110" y="30" width="80" height="80" as="geometry" />
        </mxCell>
        <mxCell id="ipMqHxaG9Kqk90G_pu0r-2" value="&lt;b&gt;&lt;font style=&quot;font-size: 10px;&quot;&gt;VENDEDORES&lt;/font&gt;&lt;/b&gt;" style="whiteSpace=wrap;html=1;aspect=fixed;fillColor=#dae8fc;strokeColor=#6c8ebf;" parent="1" vertex="1">
          <mxGeometry x="120" y="780" width="80" height="80" as="geometry" />
        </mxCell>
        <mxCell id="ipMqHxaG9Kqk90G_pu0r-3" value="&lt;b&gt;&lt;font style=&quot;font-size: 10px;&quot;&gt;LISTADO_&lt;/font&gt;&lt;/b&gt;&lt;div&gt;&lt;b&gt;&lt;font style=&quot;font-size: 10px;&quot;&gt;CONTACTOS&lt;/font&gt;&lt;/b&gt;&lt;/div&gt;" style="whiteSpace=wrap;html=1;aspect=fixed;fillColor=#dae8fc;strokeColor=#6c8ebf;" parent="1" vertex="1">
          <mxGeometry x="670" y="870" width="80" height="80" as="geometry" />
        </mxCell>
        <mxCell id="ipMqHxaG9Kqk90G_pu0r-5" value="&lt;b&gt;&lt;font style=&quot;font-size: 10px;&quot;&gt;TIENDAS&lt;/font&gt;&lt;/b&gt;" style="whiteSpace=wrap;html=1;aspect=fixed;fillColor=#dae8fc;strokeColor=#6c8ebf;" parent="1" vertex="1">
          <mxGeometry x="667" y="610" width="80" height="80" as="geometry" />
        </mxCell>
        <mxCell id="ipMqHxaG9Kqk90G_pu0r-6" value="&lt;b&gt;&lt;font style=&quot;font-size: 10px;&quot;&gt;STOCK&lt;/font&gt;&lt;/b&gt;&lt;div&gt;&lt;b&gt;&lt;font style=&quot;font-size: 10px;&quot;&gt;BIENES&lt;/font&gt;&lt;/b&gt;&lt;/div&gt;&lt;div&gt;&lt;b&gt;&lt;font style=&quot;font-size: 10px;&quot;&gt;FINALIZADOS&lt;/font&gt;&lt;/b&gt;&lt;/div&gt;" style="whiteSpace=wrap;html=1;aspect=fixed;fillColor=#dae8fc;strokeColor=#6c8ebf;" parent="1" vertex="1">
          <mxGeometry x="670" y="350" width="80" height="80" as="geometry" />
        </mxCell>
        <mxCell id="ipMqHxaG9Kqk90G_pu0r-7" value="&lt;b&gt;&lt;font style=&quot;font-size: 10px;&quot;&gt;VENTAS&lt;/font&gt;&lt;/b&gt;" style="whiteSpace=wrap;html=1;aspect=fixed;fillColor=#dae8fc;strokeColor=#6c8ebf;" parent="1" vertex="1">
          <mxGeometry x="410" y="400" width="80" height="80" as="geometry" />
        </mxCell>
        <mxCell id="ipMqHxaG9Kqk90G_pu0r-8" value="&lt;b&gt;&lt;font style=&quot;font-size: 10px;&quot;&gt;PARTES DE PRODUCCIÓN&lt;/font&gt;&lt;/b&gt;" style="whiteSpace=wrap;html=1;aspect=fixed;fillColor=#dae8fc;strokeColor=#6c8ebf;" parent="1" vertex="1">
          <mxGeometry x="650" y="90" width="80" height="80" as="geometry" />
        </mxCell>
        <mxCell id="ipMqHxaG9Kqk90G_pu0r-9" value="&lt;b&gt;&lt;font style=&quot;font-size: 10px;&quot;&gt;PRODUCTOS&lt;/font&gt;&lt;/b&gt;" style="whiteSpace=wrap;html=1;aspect=fixed;fillColor=#dae8fc;strokeColor=#6c8ebf;" parent="1" vertex="1">
          <mxGeometry x="110" y="310" width="80" height="80" as="geometry" />
        </mxCell>
        <mxCell id="ipMqHxaG9Kqk90G_pu0r-10" value="&lt;font style=&quot;font-size: 10px;&quot;&gt;&lt;b style=&quot;&quot;&gt;SUB_&lt;/b&gt;&lt;/font&gt;&lt;div&gt;&lt;font style=&quot;font-size: 10px;&quot;&gt;&lt;b style=&quot;&quot;&gt;CATEGORIAS&lt;/b&gt;&lt;/font&gt;&lt;/div&gt;" style="whiteSpace=wrap;html=1;aspect=fixed;fillColor=#dae8fc;strokeColor=#6c8ebf;" parent="1" vertex="1">
          <mxGeometry x="400" y="30" width="80" height="80" as="geometry" />
        </mxCell>
        <mxCell id="ipMqHxaG9Kqk90G_pu0r-11" value="&lt;b&gt;&lt;font style=&quot;font-size: 10px;&quot;&gt;CLIENTES&lt;/font&gt;&lt;/b&gt;" style="whiteSpace=wrap;html=1;aspect=fixed;fillColor=#dae8fc;strokeColor=#6c8ebf;" parent="1" vertex="1">
          <mxGeometry x="110" y="560" width="80" height="80" as="geometry" />
        </mxCell>
        <mxCell id="ipMqHxaG9Kqk90G_pu0r-12" value="&lt;b&gt;&lt;font style=&quot;font-size: 10px;&quot;&gt;LOCALIDADES&lt;/font&gt;&lt;/b&gt;" style="whiteSpace=wrap;html=1;aspect=fixed;fillColor=#dae8fc;strokeColor=#6c8ebf;" parent="1" vertex="1">
          <mxGeometry x="110" y="1020" width="80" height="80" as="geometry" />
        </mxCell>
        <mxCell id="ipMqHxaG9Kqk90G_pu0r-20" value="&lt;font style=&quot;font-size: 9px;&quot;&gt;&lt;b&gt;&lt;u&gt;ID Producto&lt;/u&gt;&lt;/b&gt;&lt;/font&gt;" style="ellipse;whiteSpace=wrap;html=1;fillColor=#fff2cc;strokeColor=#d6b656;" parent="1" vertex="1">
          <mxGeometry x="10" y="415" width="80" height="50" as="geometry" />
        </mxCell>
        <mxCell id="ipMqHxaG9Kqk90G_pu0r-33" value="&lt;font style=&quot;font-size: 10px;&quot;&gt;Tienen&lt;/font&gt;" style="rhombus;whiteSpace=wrap;html=1;fillColor=#ffe6cc;strokeColor=#d79b00;" parent="1" vertex="1">
          <mxGeometry x="280" y="670" width="80" height="80" as="geometry" />
        </mxCell>
        <mxCell id="ipMqHxaG9Kqk90G_pu0r-34" value="&lt;font style=&quot;font-size: 10px;&quot;&gt;Llevan&lt;/font&gt;" style="rhombus;whiteSpace=wrap;html=1;fillColor=#ffe6cc;strokeColor=#d79b00;" parent="1" vertex="1">
          <mxGeometry x="290" y="30" width="80" height="80" as="geometry" />
        </mxCell>
        <mxCell id="ipMqHxaG9Kqk90G_pu0r-35" value="&lt;font style=&quot;font-size: 10px;&quot;&gt;Incluyen&lt;/font&gt;" style="rhombus;whiteSpace=wrap;html=1;fillColor=#ffe6cc;strokeColor=#d79b00;" parent="1" vertex="1">
          <mxGeometry x="414" y="780" width="80" height="80" as="geometry" />
        </mxCell>
        <mxCell id="ipMqHxaG9Kqk90G_pu0r-36" value="&lt;font style=&quot;font-size: 10px;&quot;&gt;Generan&lt;/font&gt;" style="rhombus;whiteSpace=wrap;html=1;fillColor=#ffe6cc;strokeColor=#d79b00;" parent="1" vertex="1">
          <mxGeometry x="530" y="400" width="80" height="80" as="geometry" />
        </mxCell>
        <mxCell id="ipMqHxaG9Kqk90G_pu0r-40" value="" style="endArrow=none;html=1;rounded=0;exitX=1;exitY=0.5;exitDx=0;exitDy=0;entryX=0;entryY=0.5;entryDx=0;entryDy=0;" parent="1" source="ipMqHxaG9Kqk90G_pu0r-34" target="ipMqHxaG9Kqk90G_pu0r-10" edge="1">
          <mxGeometry width="50" height="50" relative="1" as="geometry">
            <mxPoint x="390" y="270" as="sourcePoint" />
            <mxPoint x="440" y="220" as="targetPoint" />
          </mxGeometry>
        </mxCell>
        <mxCell id="ipMqHxaG9Kqk90G_pu0r-41" value="" style="endArrow=none;html=1;rounded=0;exitX=1;exitY=0.5;exitDx=0;exitDy=0;entryX=0;entryY=0.5;entryDx=0;entryDy=0;" parent="1" source="ipMqHxaG9Kqk90G_pu0r-1" target="ipMqHxaG9Kqk90G_pu0r-34" edge="1">
          <mxGeometry width="50" height="50" relative="1" as="geometry">
            <mxPoint x="390" y="270" as="sourcePoint" />
            <mxPoint x="440" y="220" as="targetPoint" />
          </mxGeometry>
        </mxCell>
        <mxCell id="ipMqHxaG9Kqk90G_pu0r-42" value="&lt;font style=&quot;font-size: 10px;&quot;&gt;Categorizan&lt;/font&gt;" style="rhombus;whiteSpace=wrap;html=1;fillColor=#ffe6cc;strokeColor=#d79b00;" parent="1" vertex="1">
          <mxGeometry x="30" y="200" width="80" height="80" as="geometry" />
        </mxCell>
        <mxCell id="ipMqHxaG9Kqk90G_pu0r-45" value="" style="endArrow=none;html=1;rounded=0;exitX=0;exitY=0.5;exitDx=0;exitDy=0;entryX=0.5;entryY=1;entryDx=0;entryDy=0;" parent="1" source="ipMqHxaG9Kqk90G_pu0r-9" target="ipMqHxaG9Kqk90G_pu0r-42" edge="1">
          <mxGeometry width="50" height="50" relative="1" as="geometry">
            <mxPoint x="390" y="270" as="sourcePoint" />
            <mxPoint x="440" y="220" as="targetPoint" />
            <Array as="points">
              <mxPoint x="70" y="350" />
            </Array>
          </mxGeometry>
        </mxCell>
        <mxCell id="ipMqHxaG9Kqk90G_pu0r-46" value="&lt;font style=&quot;font-size: 10px;&quot;&gt;Incluyen&lt;/font&gt;" style="rhombus;whiteSpace=wrap;html=1;fillColor=#ffe6cc;strokeColor=#d79b00;" parent="1" vertex="1">
          <mxGeometry x="320" y="310" width="80" height="80" as="geometry" />
        </mxCell>
        <mxCell id="ipMqHxaG9Kqk90G_pu0r-47" value="" style="endArrow=none;html=1;rounded=0;exitX=0.5;exitY=0;exitDx=0;exitDy=0;entryX=0;entryY=0.5;entryDx=0;entryDy=0;" parent="1" source="ipMqHxaG9Kqk90G_pu0r-42" target="ipMqHxaG9Kqk90G_pu0r-1" edge="1">
          <mxGeometry width="50" height="50" relative="1" as="geometry">
            <mxPoint x="390" y="270" as="sourcePoint" />
            <mxPoint x="440" y="220" as="targetPoint" />
            <Array as="points">
              <mxPoint x="70" y="70" />
            </Array>
          </mxGeometry>
        </mxCell>
        <mxCell id="ipMqHxaG9Kqk90G_pu0r-48" value="" style="endArrow=none;html=1;rounded=0;exitX=1;exitY=0.5;exitDx=0;exitDy=0;" parent="1" source="ipMqHxaG9Kqk90G_pu0r-9" target="ipMqHxaG9Kqk90G_pu0r-46" edge="1">
          <mxGeometry width="50" height="50" relative="1" as="geometry">
            <mxPoint x="390" y="270" as="sourcePoint" />
            <mxPoint x="440" y="220" as="targetPoint" />
          </mxGeometry>
        </mxCell>
        <mxCell id="ipMqHxaG9Kqk90G_pu0r-49" value="" style="endArrow=none;html=1;rounded=0;exitX=1;exitY=0.5;exitDx=0;exitDy=0;entryX=0.5;entryY=0;entryDx=0;entryDy=0;" parent="1" source="ipMqHxaG9Kqk90G_pu0r-46" target="ipMqHxaG9Kqk90G_pu0r-7" edge="1">
          <mxGeometry width="50" height="50" relative="1" as="geometry">
            <mxPoint x="390" y="370" as="sourcePoint" />
            <mxPoint x="440" y="320" as="targetPoint" />
            <Array as="points">
              <mxPoint x="450" y="350" />
            </Array>
          </mxGeometry>
        </mxCell>
        <mxCell id="ipMqHxaG9Kqk90G_pu0r-50" value="&lt;font style=&quot;font-size: 10px;&quot;&gt;Fabrican&lt;/font&gt;" style="rhombus;whiteSpace=wrap;html=1;strokeColor=#d79b00;align=center;verticalAlign=middle;fontFamily=Helvetica;fontSize=12;fontColor=default;fillColor=#ffe6cc;" parent="1" vertex="1">
          <mxGeometry x="280" y="170" width="80" height="80" as="geometry" />
        </mxCell>
        <mxCell id="ipMqHxaG9Kqk90G_pu0r-51" value="&lt;font style=&quot;font-size: 10px;&quot;&gt;Contienen&lt;/font&gt;" style="rhombus;whiteSpace=wrap;html=1;strokeColor=#d79b00;align=center;verticalAlign=middle;fontFamily=Helvetica;fontSize=12;fontColor=default;fillColor=#ffe6cc;" parent="1" vertex="1">
          <mxGeometry x="540" y="270" width="80" height="80" as="geometry" />
        </mxCell>
        <mxCell id="ipMqHxaG9Kqk90G_pu0r-52" value="&lt;font style=&quot;font-size: 10px;&quot;&gt;Demandan&lt;/font&gt;" style="rhombus;whiteSpace=wrap;html=1;strokeColor=#d79b00;align=center;verticalAlign=middle;fontFamily=Helvetica;fontSize=12;fontColor=default;fillColor=#ffe6cc;" parent="1" vertex="1">
          <mxGeometry x="280" y="560" width="80" height="80" as="geometry" />
        </mxCell>
        <mxCell id="ipMqHxaG9Kqk90G_pu0r-53" value="" style="endArrow=none;html=1;rounded=0;exitX=1;exitY=0.5;exitDx=0;exitDy=0;entryX=0;entryY=0.5;entryDx=0;entryDy=0;" parent="1" source="ipMqHxaG9Kqk90G_pu0r-2" target="ipMqHxaG9Kqk90G_pu0r-35" edge="1">
          <mxGeometry width="50" height="50" relative="1" as="geometry">
            <mxPoint x="390" y="770" as="sourcePoint" />
            <mxPoint x="440" y="720" as="targetPoint" />
          </mxGeometry>
        </mxCell>
        <mxCell id="ipMqHxaG9Kqk90G_pu0r-54" value="" style="endArrow=none;html=1;rounded=0;exitX=0.5;exitY=0;exitDx=0;exitDy=0;entryX=0.5;entryY=1;entryDx=0;entryDy=0;" parent="1" source="ipMqHxaG9Kqk90G_pu0r-35" target="ipMqHxaG9Kqk90G_pu0r-7" edge="1">
          <mxGeometry width="50" height="50" relative="1" as="geometry">
            <mxPoint x="390" y="770" as="sourcePoint" />
            <mxPoint x="440" y="720" as="targetPoint" />
          </mxGeometry>
        </mxCell>
        <mxCell id="ipMqHxaG9Kqk90G_pu0r-55" value="" style="endArrow=none;html=1;rounded=0;exitX=1;exitY=0;exitDx=0;exitDy=0;entryX=0;entryY=0.5;entryDx=0;entryDy=0;" parent="1" source="ipMqHxaG9Kqk90G_pu0r-9" target="ipMqHxaG9Kqk90G_pu0r-51" edge="1">
          <mxGeometry width="50" height="50" relative="1" as="geometry">
            <mxPoint x="390" y="270" as="sourcePoint" />
            <mxPoint x="440" y="220" as="targetPoint" />
            <Array as="points" />
          </mxGeometry>
        </mxCell>
        <mxCell id="ipMqHxaG9Kqk90G_pu0r-56" value="" style="endArrow=none;html=1;rounded=0;exitX=0.5;exitY=1;exitDx=0;exitDy=0;entryX=0;entryY=0.5;entryDx=0;entryDy=0;" parent="1" source="ipMqHxaG9Kqk90G_pu0r-51" target="ipMqHxaG9Kqk90G_pu0r-6" edge="1">
          <mxGeometry width="50" height="50" relative="1" as="geometry">
            <mxPoint x="480" y="280" as="sourcePoint" />
            <mxPoint x="530" y="230" as="targetPoint" />
            <Array as="points">
              <mxPoint x="580" y="390" />
            </Array>
          </mxGeometry>
        </mxCell>
        <mxCell id="ipMqHxaG9Kqk90G_pu0r-58" value="" style="endArrow=none;html=1;rounded=0;exitX=0.5;exitY=0;exitDx=0;exitDy=0;entryX=0;entryY=0.5;entryDx=0;entryDy=0;" parent="1" source="ipMqHxaG9Kqk90G_pu0r-9" target="ipMqHxaG9Kqk90G_pu0r-50" edge="1">
          <mxGeometry width="50" height="50" relative="1" as="geometry">
            <mxPoint x="390" y="270" as="sourcePoint" />
            <mxPoint x="440" y="220" as="targetPoint" />
          </mxGeometry>
        </mxCell>
        <mxCell id="ipMqHxaG9Kqk90G_pu0r-59" value="" style="endArrow=none;html=1;rounded=0;exitX=1;exitY=0.5;exitDx=0;exitDy=0;entryX=0;entryY=0.5;entryDx=0;entryDy=0;" parent="1" source="ipMqHxaG9Kqk90G_pu0r-50" target="ipMqHxaG9Kqk90G_pu0r-8" edge="1">
          <mxGeometry width="50" height="50" relative="1" as="geometry">
            <mxPoint x="390" y="270" as="sourcePoint" />
            <mxPoint x="440" y="220" as="targetPoint" />
            <Array as="points">
              <mxPoint x="494" y="130" />
            </Array>
          </mxGeometry>
        </mxCell>
        <mxCell id="ipMqHxaG9Kqk90G_pu0r-60" value="" style="endArrow=none;html=1;rounded=0;entryX=0.5;entryY=1;entryDx=0;entryDy=0;exitX=0;exitY=0.5;exitDx=0;exitDy=0;" parent="1" source="ipMqHxaG9Kqk90G_pu0r-5" target="ipMqHxaG9Kqk90G_pu0r-36" edge="1">
          <mxGeometry width="50" height="50" relative="1" as="geometry">
            <mxPoint x="390" y="570" as="sourcePoint" />
            <mxPoint x="440" y="520" as="targetPoint" />
            <Array as="points">
              <mxPoint x="570" y="650" />
            </Array>
          </mxGeometry>
        </mxCell>
        <mxCell id="ipMqHxaG9Kqk90G_pu0r-61" value="" style="endArrow=none;html=1;rounded=0;entryX=0;entryY=0.5;entryDx=0;entryDy=0;exitX=1;exitY=0.5;exitDx=0;exitDy=0;" parent="1" source="ipMqHxaG9Kqk90G_pu0r-7" target="ipMqHxaG9Kqk90G_pu0r-36" edge="1">
          <mxGeometry width="50" height="50" relative="1" as="geometry">
            <mxPoint x="390" y="570" as="sourcePoint" />
            <mxPoint x="440" y="520" as="targetPoint" />
          </mxGeometry>
        </mxCell>
        <mxCell id="ipMqHxaG9Kqk90G_pu0r-62" value="" style="endArrow=none;html=1;rounded=0;exitX=0.5;exitY=0;exitDx=0;exitDy=0;entryX=0;entryY=0.5;entryDx=0;entryDy=0;" parent="1" source="ipMqHxaG9Kqk90G_pu0r-52" target="ipMqHxaG9Kqk90G_pu0r-7" edge="1">
          <mxGeometry width="50" height="50" relative="1" as="geometry">
            <mxPoint x="390" y="470" as="sourcePoint" />
            <mxPoint x="440" y="420" as="targetPoint" />
            <Array as="points">
              <mxPoint x="320" y="440" />
            </Array>
          </mxGeometry>
        </mxCell>
        <mxCell id="ipMqHxaG9Kqk90G_pu0r-63" value="" style="endArrow=none;html=1;rounded=0;exitX=1;exitY=0.5;exitDx=0;exitDy=0;" parent="1" source="ipMqHxaG9Kqk90G_pu0r-11" target="ipMqHxaG9Kqk90G_pu0r-52" edge="1">
          <mxGeometry width="50" height="50" relative="1" as="geometry">
            <mxPoint x="390" y="470" as="sourcePoint" />
            <mxPoint x="440" y="420" as="targetPoint" />
          </mxGeometry>
        </mxCell>
        <mxCell id="ipMqHxaG9Kqk90G_pu0r-64" value="" style="endArrow=none;html=1;rounded=0;exitX=1;exitY=0;exitDx=0;exitDy=0;entryX=0;entryY=1;entryDx=0;entryDy=0;" parent="1" source="ipMqHxaG9Kqk90G_pu0r-20" target="ipMqHxaG9Kqk90G_pu0r-9" edge="1">
          <mxGeometry width="50" height="50" relative="1" as="geometry">
            <mxPoint x="360" y="500" as="sourcePoint" />
            <mxPoint x="410" y="450" as="targetPoint" />
          </mxGeometry>
        </mxCell>
        <mxCell id="ipMqHxaG9Kqk90G_pu0r-65" value="&lt;font style=&quot;font-size: 9px;&quot;&gt;Producto&lt;/font&gt;" style="ellipse;whiteSpace=wrap;html=1;fillColor=#fff2cc;strokeColor=#d6b656;" parent="1" vertex="1">
          <mxGeometry x="100" y="415" width="80" height="50" as="geometry" />
        </mxCell>
        <mxCell id="ipMqHxaG9Kqk90G_pu0r-66" value="" style="endArrow=none;html=1;rounded=0;exitX=0.5;exitY=0;exitDx=0;exitDy=0;entryX=0.5;entryY=1;entryDx=0;entryDy=0;" parent="1" source="ipMqHxaG9Kqk90G_pu0r-65" target="ipMqHxaG9Kqk90G_pu0r-9" edge="1">
          <mxGeometry width="50" height="50" relative="1" as="geometry">
            <mxPoint x="360" y="500" as="sourcePoint" />
            <mxPoint x="410" y="450" as="targetPoint" />
          </mxGeometry>
        </mxCell>
        <mxCell id="ipMqHxaG9Kqk90G_pu0r-67" value="&lt;font style=&quot;font-size: 9px;&quot;&gt;Fecha Alta&lt;/font&gt;" style="ellipse;whiteSpace=wrap;html=1;fillColor=#fff2cc;strokeColor=#d6b656;" parent="1" vertex="1">
          <mxGeometry x="190" y="415" width="80" height="50" as="geometry" />
        </mxCell>
        <mxCell id="ipMqHxaG9Kqk90G_pu0r-68" value="" style="endArrow=none;html=1;rounded=0;exitX=0.5;exitY=0;exitDx=0;exitDy=0;" parent="1" source="ipMqHxaG9Kqk90G_pu0r-67" target="ipMqHxaG9Kqk90G_pu0r-9" edge="1">
          <mxGeometry width="50" height="50" relative="1" as="geometry">
            <mxPoint x="360" y="500" as="sourcePoint" />
            <mxPoint x="410" y="450" as="targetPoint" />
          </mxGeometry>
        </mxCell>
        <mxCell id="ipMqHxaG9Kqk90G_pu0r-70" value="&lt;font style=&quot;font-size: 9px;&quot;&gt;ID_Categoria&lt;/font&gt;" style="ellipse;whiteSpace=wrap;html=1;fillColor=#fff2cc;strokeColor=#d6b656;" parent="1" vertex="1">
          <mxGeometry x="10" y="362" width="80" height="50" as="geometry" />
        </mxCell>
        <mxCell id="ipMqHxaG9Kqk90G_pu0r-71" value="" style="endArrow=none;html=1;rounded=0;exitX=1;exitY=0.5;exitDx=0;exitDy=0;entryX=0;entryY=0.75;entryDx=0;entryDy=0;" parent="1" source="ipMqHxaG9Kqk90G_pu0r-70" target="ipMqHxaG9Kqk90G_pu0r-9" edge="1">
          <mxGeometry width="50" height="50" relative="1" as="geometry">
            <mxPoint x="180" y="447" as="sourcePoint" />
            <mxPoint x="10" y="330" as="targetPoint" />
          </mxGeometry>
        </mxCell>
        <mxCell id="ipMqHxaG9Kqk90G_pu0r-72" value="&lt;font style=&quot;font-size: 9px;&quot;&gt;ID_SubCategoria&lt;/font&gt;" style="ellipse;whiteSpace=wrap;html=1;fillColor=#fff2cc;strokeColor=#d6b656;" parent="1" vertex="1">
          <mxGeometry x="220" y="362" width="80" height="50" as="geometry" />
        </mxCell>
        <mxCell id="ipMqHxaG9Kqk90G_pu0r-73" value="" style="endArrow=none;html=1;rounded=0;exitX=0;exitY=0.5;exitDx=0;exitDy=0;entryX=1;entryY=0.75;entryDx=0;entryDy=0;" parent="1" source="ipMqHxaG9Kqk90G_pu0r-72" target="ipMqHxaG9Kqk90G_pu0r-9" edge="1">
          <mxGeometry width="50" height="50" relative="1" as="geometry">
            <mxPoint x="190" y="457" as="sourcePoint" />
            <mxPoint x="120" y="380" as="targetPoint" />
          </mxGeometry>
        </mxCell>
        <mxCell id="ipMqHxaG9Kqk90G_pu0r-75" value="&lt;font style=&quot;font-size: 9px;&quot;&gt;&lt;b&gt;&lt;u&gt;ID_Categoria&lt;/u&gt;&lt;/b&gt;&lt;/font&gt;" style="ellipse;whiteSpace=wrap;html=1;fillColor=#fff2cc;strokeColor=#d6b656;" parent="1" vertex="1">
          <mxGeometry x="170" y="130" width="80" height="50" as="geometry" />
        </mxCell>
        <mxCell id="ipMqHxaG9Kqk90G_pu0r-76" value="" style="endArrow=none;html=1;rounded=0;exitX=0.4;exitY=-0.008;exitDx=0;exitDy=0;entryX=0.5;entryY=1;entryDx=0;entryDy=0;exitPerimeter=0;" parent="1" source="ipMqHxaG9Kqk90G_pu0r-75" target="ipMqHxaG9Kqk90G_pu0r-1" edge="1">
          <mxGeometry width="50" height="50" relative="1" as="geometry">
            <mxPoint x="160" y="215" as="sourcePoint" />
            <mxPoint x="160" y="128" as="targetPoint" />
          </mxGeometry>
        </mxCell>
        <mxCell id="ipMqHxaG9Kqk90G_pu0r-79" value="&lt;font style=&quot;font-size: 9px;&quot;&gt;Categoria&lt;/font&gt;" style="ellipse;whiteSpace=wrap;html=1;fillColor=#fff2cc;strokeColor=#d6b656;" parent="1" vertex="1">
          <mxGeometry x="80" y="130" width="80" height="50" as="geometry" />
        </mxCell>
        <mxCell id="ipMqHxaG9Kqk90G_pu0r-80" value="" style="endArrow=none;html=1;rounded=0;exitX=0.5;exitY=0;exitDx=0;exitDy=0;entryX=0.5;entryY=1;entryDx=0;entryDy=0;" parent="1" source="ipMqHxaG9Kqk90G_pu0r-79" target="ipMqHxaG9Kqk90G_pu0r-1" edge="1">
          <mxGeometry width="50" height="50" relative="1" as="geometry">
            <mxPoint x="210" y="205" as="sourcePoint" />
            <mxPoint x="140" y="128" as="targetPoint" />
          </mxGeometry>
        </mxCell>
        <mxCell id="ipMqHxaG9Kqk90G_pu0r-82" value="&lt;font style=&quot;font-size: 9px;&quot;&gt;ID_SubCategoria&lt;/font&gt;" style="ellipse;whiteSpace=wrap;html=1;fillColor=#fff2cc;strokeColor=#d6b656;" parent="1" vertex="1">
          <mxGeometry x="220" y="80" width="80" height="50" as="geometry" />
        </mxCell>
        <mxCell id="ipMqHxaG9Kqk90G_pu0r-83" value="" style="endArrow=none;html=1;rounded=0;exitX=0;exitY=0.5;exitDx=0;exitDy=0;entryX=1;entryY=0.75;entryDx=0;entryDy=0;" parent="1" source="ipMqHxaG9Kqk90G_pu0r-82" target="ipMqHxaG9Kqk90G_pu0r-1" edge="1">
          <mxGeometry width="50" height="50" relative="1" as="geometry">
            <mxPoint x="320" y="150" as="sourcePoint" />
            <mxPoint x="260" y="55" as="targetPoint" />
          </mxGeometry>
        </mxCell>
        <mxCell id="ipMqHxaG9Kqk90G_pu0r-84" value="&lt;font style=&quot;font-size: 9px;&quot;&gt;&lt;b&gt;&lt;u&gt;ID_SubCategoria&lt;/u&gt;&lt;/b&gt;&lt;/font&gt;" style="ellipse;whiteSpace=wrap;html=1;fillColor=#fff2cc;strokeColor=#d6b656;" parent="1" vertex="1">
          <mxGeometry x="510" y="10" width="80" height="50" as="geometry" />
        </mxCell>
        <mxCell id="ipMqHxaG9Kqk90G_pu0r-85" value="" style="endArrow=none;html=1;rounded=0;exitX=0;exitY=0.5;exitDx=0;exitDy=0;entryX=1;entryY=0.25;entryDx=0;entryDy=0;" parent="1" source="ipMqHxaG9Kqk90G_pu0r-84" target="ipMqHxaG9Kqk90G_pu0r-10" edge="1">
          <mxGeometry width="50" height="50" relative="1" as="geometry">
            <mxPoint x="524" y="121.4" as="sourcePoint" />
            <mxPoint x="512" y="-9.999999999999979" as="targetPoint" />
          </mxGeometry>
        </mxCell>
        <mxCell id="ipMqHxaG9Kqk90G_pu0r-86" value="&lt;font style=&quot;font-size: 9px;&quot;&gt;SubCategoria&lt;/font&gt;" style="ellipse;whiteSpace=wrap;html=1;fillColor=#fff2cc;strokeColor=#d6b656;" parent="1" vertex="1">
          <mxGeometry x="510" y="70" width="80" height="50" as="geometry" />
        </mxCell>
        <mxCell id="ipMqHxaG9Kqk90G_pu0r-87" value="" style="endArrow=none;html=1;rounded=0;exitX=0;exitY=0.5;exitDx=0;exitDy=0;entryX=1.015;entryY=0.63;entryDx=0;entryDy=0;entryPerimeter=0;" parent="1" source="ipMqHxaG9Kqk90G_pu0r-86" target="ipMqHxaG9Kqk90G_pu0r-10" edge="1">
          <mxGeometry width="50" height="50" relative="1" as="geometry">
            <mxPoint x="704.4" y="147" as="sourcePoint" />
            <mxPoint x="533.9999999999999" y="60" as="targetPoint" />
          </mxGeometry>
        </mxCell>
        <mxCell id="ipMqHxaG9Kqk90G_pu0r-90" value="&lt;font style=&quot;font-size: 9px;&quot;&gt;Cantidad&lt;/font&gt;" style="ellipse;whiteSpace=wrap;html=1;fillColor=#fff2cc;strokeColor=#d6b656;" parent="1" vertex="1">
          <mxGeometry x="560" y="195" width="80" height="50" as="geometry" />
        </mxCell>
        <mxCell id="ipMqHxaG9Kqk90G_pu0r-91" value="" style="endArrow=none;html=1;rounded=0;exitX=0.5;exitY=0;exitDx=0;exitDy=0;entryX=0;entryY=1;entryDx=0;entryDy=0;" parent="1" source="ipMqHxaG9Kqk90G_pu0r-90" target="ipMqHxaG9Kqk90G_pu0r-8" edge="1">
          <mxGeometry width="50" height="50" relative="1" as="geometry">
            <mxPoint x="740" y="265" as="sourcePoint" />
            <mxPoint x="680" y="170" as="targetPoint" />
          </mxGeometry>
        </mxCell>
        <mxCell id="ipMqHxaG9Kqk90G_pu0r-92" value="&lt;font style=&quot;font-size: 9px;&quot;&gt;ID_Producto&lt;/font&gt;" style="ellipse;whiteSpace=wrap;html=1;fillColor=#fff2cc;strokeColor=#d6b656;" parent="1" vertex="1">
          <mxGeometry x="650" y="190" width="80" height="50" as="geometry" />
        </mxCell>
        <mxCell id="ipMqHxaG9Kqk90G_pu0r-93" value="" style="endArrow=none;html=1;rounded=0;exitX=0.5;exitY=0;exitDx=0;exitDy=0;entryX=0.645;entryY=1.01;entryDx=0;entryDy=0;entryPerimeter=0;" parent="1" source="ipMqHxaG9Kqk90G_pu0r-92" target="ipMqHxaG9Kqk90G_pu0r-8" edge="1">
          <mxGeometry width="50" height="50" relative="1" as="geometry">
            <mxPoint x="830" y="265" as="sourcePoint" />
            <mxPoint x="770" y="170" as="targetPoint" />
          </mxGeometry>
        </mxCell>
        <mxCell id="ipMqHxaG9Kqk90G_pu0r-94" value="&lt;font style=&quot;font-size: 9px;&quot;&gt;Costo_Por_Unidad&lt;/font&gt;" style="ellipse;whiteSpace=wrap;html=1;fillColor=#fff2cc;strokeColor=#d6b656;" parent="1" vertex="1">
          <mxGeometry x="534" y="140" width="80" height="50" as="geometry" />
        </mxCell>
        <mxCell id="ipMqHxaG9Kqk90G_pu0r-95" value="" style="endArrow=none;html=1;rounded=0;exitX=1;exitY=0.5;exitDx=0;exitDy=0;entryX=0;entryY=0.75;entryDx=0;entryDy=0;" parent="1" source="ipMqHxaG9Kqk90G_pu0r-94" target="ipMqHxaG9Kqk90G_pu0r-8" edge="1">
          <mxGeometry width="50" height="50" relative="1" as="geometry">
            <mxPoint x="710" y="215" as="sourcePoint" />
            <mxPoint x="650" y="120" as="targetPoint" />
          </mxGeometry>
        </mxCell>
        <mxCell id="ipMqHxaG9Kqk90G_pu0r-96" value="&lt;font style=&quot;font-size: 9px;&quot;&gt;Costo_Total&lt;/font&gt;" style="ellipse;whiteSpace=wrap;html=1;fillColor=#fff2cc;strokeColor=#d6b656;dashed=1;" parent="1" vertex="1">
          <mxGeometry x="580" y="40" width="80" height="50" as="geometry" />
        </mxCell>
        <mxCell id="ipMqHxaG9Kqk90G_pu0r-97" value="" style="endArrow=none;html=1;rounded=0;exitX=0.5;exitY=1;exitDx=0;exitDy=0;" parent="1" source="ipMqHxaG9Kqk90G_pu0r-96" target="ipMqHxaG9Kqk90G_pu0r-8" edge="1">
          <mxGeometry width="50" height="50" relative="1" as="geometry">
            <mxPoint x="740" y="95" as="sourcePoint" />
            <mxPoint x="680" as="targetPoint" />
          </mxGeometry>
        </mxCell>
        <mxCell id="ipMqHxaG9Kqk90G_pu0r-98" value="&lt;font style=&quot;font-size: 9px;&quot;&gt;&lt;b&gt;&lt;u&gt;ID_Parte_&lt;/u&gt;&lt;/b&gt;&lt;/font&gt;&lt;div&gt;&lt;font style=&quot;font-size: 9px;&quot;&gt;&lt;b&gt;&lt;u&gt;Producción&lt;/u&gt;&lt;/b&gt;&lt;/font&gt;&lt;/div&gt;" style="ellipse;whiteSpace=wrap;html=1;fillColor=#fff2cc;strokeColor=#d6b656;" parent="1" vertex="1">
          <mxGeometry x="650" y="10" width="80" height="50" as="geometry" />
        </mxCell>
        <mxCell id="ipMqHxaG9Kqk90G_pu0r-99" value="" style="endArrow=none;html=1;rounded=0;exitX=0.5;exitY=1;exitDx=0;exitDy=0;entryX=0.5;entryY=0;entryDx=0;entryDy=0;" parent="1" source="ipMqHxaG9Kqk90G_pu0r-98" target="ipMqHxaG9Kqk90G_pu0r-8" edge="1">
          <mxGeometry width="50" height="50" relative="1" as="geometry">
            <mxPoint x="830" y="95" as="sourcePoint" />
            <mxPoint x="770" as="targetPoint" />
          </mxGeometry>
        </mxCell>
        <mxCell id="ipMqHxaG9Kqk90G_pu0r-100" value="&lt;font style=&quot;font-size: 9px;&quot;&gt;Fecha_&lt;/font&gt;&lt;div&gt;&lt;font style=&quot;font-size: 9px;&quot;&gt;Finalización&lt;/font&gt;&lt;/div&gt;" style="ellipse;whiteSpace=wrap;html=1;fillColor=#fff2cc;strokeColor=#d6b656;" parent="1" vertex="1">
          <mxGeometry x="710" y="240" width="80" height="50" as="geometry" />
        </mxCell>
        <mxCell id="ipMqHxaG9Kqk90G_pu0r-101" value="" style="endArrow=none;html=1;rounded=0;exitX=0.5;exitY=0;exitDx=0;exitDy=0;entryX=0.9;entryY=1.02;entryDx=0;entryDy=0;entryPerimeter=0;" parent="1" source="ipMqHxaG9Kqk90G_pu0r-100" target="ipMqHxaG9Kqk90G_pu0r-8" edge="1">
          <mxGeometry width="50" height="50" relative="1" as="geometry">
            <mxPoint x="790" y="315" as="sourcePoint" />
            <mxPoint x="730" y="170" as="targetPoint" />
          </mxGeometry>
        </mxCell>
        <mxCell id="ipMqHxaG9Kqk90G_pu0r-102" value="&lt;font style=&quot;font-size: 9px;&quot;&gt;Pedido_De_&lt;/font&gt;&lt;div&gt;&lt;font style=&quot;font-size: 9px;&quot;&gt;Producción&lt;/font&gt;&lt;/div&gt;" style="ellipse;whiteSpace=wrap;html=1;fillColor=#fff2cc;strokeColor=#d6b656;" parent="1" vertex="1">
          <mxGeometry x="740" y="20" width="80" height="50" as="geometry" />
        </mxCell>
        <mxCell id="ipMqHxaG9Kqk90G_pu0r-103" value="" style="endArrow=none;html=1;rounded=0;exitX=0.25;exitY=1;exitDx=0;exitDy=0;entryX=1;entryY=0;entryDx=0;entryDy=0;exitPerimeter=0;" parent="1" source="ipMqHxaG9Kqk90G_pu0r-102" target="ipMqHxaG9Kqk90G_pu0r-8" edge="1">
          <mxGeometry width="50" height="50" relative="1" as="geometry">
            <mxPoint x="800" y="325" as="sourcePoint" />
            <mxPoint x="740" y="230" as="targetPoint" />
          </mxGeometry>
        </mxCell>
        <mxCell id="ipMqHxaG9Kqk90G_pu0r-104" value="&lt;font style=&quot;font-size: 9px;&quot;&gt;Estado&lt;/font&gt;" style="ellipse;whiteSpace=wrap;html=1;fillColor=#fff2cc;strokeColor=#d6b656;" parent="1" vertex="1">
          <mxGeometry x="740" y="105" width="80" height="50" as="geometry" />
        </mxCell>
        <mxCell id="ipMqHxaG9Kqk90G_pu0r-105" value="" style="endArrow=none;html=1;rounded=0;exitX=0;exitY=0.5;exitDx=0;exitDy=0;entryX=1;entryY=0.5;entryDx=0;entryDy=0;" parent="1" source="ipMqHxaG9Kqk90G_pu0r-104" target="ipMqHxaG9Kqk90G_pu0r-8" edge="1">
          <mxGeometry width="50" height="50" relative="1" as="geometry">
            <mxPoint x="810" y="335" as="sourcePoint" />
            <mxPoint x="750" y="240" as="targetPoint" />
          </mxGeometry>
        </mxCell>
        <mxCell id="ipMqHxaG9Kqk90G_pu0r-106" value="&lt;font style=&quot;font-size: 9px;&quot;&gt;Fecha_Inicio&lt;/font&gt;" style="ellipse;whiteSpace=wrap;html=1;fillColor=#fff2cc;strokeColor=#d6b656;" parent="1" vertex="1">
          <mxGeometry x="747" y="190" width="80" height="50" as="geometry" />
        </mxCell>
        <mxCell id="ipMqHxaG9Kqk90G_pu0r-107" value="" style="endArrow=none;html=1;rounded=0;exitX=0.5;exitY=0;exitDx=0;exitDy=0;entryX=1;entryY=1;entryDx=0;entryDy=0;" parent="1" source="ipMqHxaG9Kqk90G_pu0r-106" target="ipMqHxaG9Kqk90G_pu0r-8" edge="1">
          <mxGeometry width="50" height="50" relative="1" as="geometry">
            <mxPoint x="877" y="265" as="sourcePoint" />
            <mxPoint x="817" y="170" as="targetPoint" />
          </mxGeometry>
        </mxCell>
        <mxCell id="ipMqHxaG9Kqk90G_pu0r-108" value="&lt;font style=&quot;font-size: 9px;&quot;&gt;Cantidad&lt;/font&gt;" style="ellipse;whiteSpace=wrap;html=1;fillColor=#fff2cc;strokeColor=#d6b656;" parent="1" vertex="1">
          <mxGeometry x="720" y="460" width="80" height="50" as="geometry" />
        </mxCell>
        <mxCell id="ipMqHxaG9Kqk90G_pu0r-109" value="" style="endArrow=none;html=1;rounded=0;exitX=0.5;exitY=0;exitDx=0;exitDy=0;entryX=0.5;entryY=1;entryDx=0;entryDy=0;" parent="1" source="ipMqHxaG9Kqk90G_pu0r-108" target="ipMqHxaG9Kqk90G_pu0r-6" edge="1">
          <mxGeometry width="50" height="50" relative="1" as="geometry">
            <mxPoint x="780" y="575" as="sourcePoint" />
            <mxPoint x="720" y="430" as="targetPoint" />
          </mxGeometry>
        </mxCell>
        <mxCell id="ipMqHxaG9Kqk90G_pu0r-110" value="&lt;font style=&quot;font-size: 9px;&quot;&gt;Interno&lt;/font&gt;" style="ellipse;whiteSpace=wrap;html=1;fillColor=#fff2cc;strokeColor=#d6b656;" parent="1" vertex="1">
          <mxGeometry x="740" y="990" width="80" height="50" as="geometry" />
        </mxCell>
        <mxCell id="ipMqHxaG9Kqk90G_pu0r-111" value="" style="endArrow=none;html=1;rounded=0;exitX=0.5;exitY=0;exitDx=0;exitDy=0;entryX=0.5;entryY=1;entryDx=0;entryDy=0;" parent="1" source="ipMqHxaG9Kqk90G_pu0r-110" target="ipMqHxaG9Kqk90G_pu0r-3" edge="1">
          <mxGeometry width="50" height="50" relative="1" as="geometry">
            <mxPoint x="760" y="1105" as="sourcePoint" />
            <mxPoint x="690" y="960" as="targetPoint" />
          </mxGeometry>
        </mxCell>
        <mxCell id="ipMqHxaG9Kqk90G_pu0r-112" value="&lt;font style=&quot;font-size: 9px;&quot;&gt;Telefono&lt;/font&gt;" style="ellipse;whiteSpace=wrap;html=1;fillColor=#fff2cc;strokeColor=#d6b656;" parent="1" vertex="1">
          <mxGeometry x="660" y="1010" width="80" height="50" as="geometry" />
        </mxCell>
        <mxCell id="ipMqHxaG9Kqk90G_pu0r-113" value="" style="endArrow=none;html=1;rounded=0;exitX=0.5;exitY=0;exitDx=0;exitDy=0;entryX=0.25;entryY=1;entryDx=0;entryDy=0;" parent="1" source="ipMqHxaG9Kqk90G_pu0r-112" target="ipMqHxaG9Kqk90G_pu0r-3" edge="1">
          <mxGeometry width="50" height="50" relative="1" as="geometry">
            <mxPoint x="664" y="1115" as="sourcePoint" />
            <mxPoint x="614" y="960" as="targetPoint" />
          </mxGeometry>
        </mxCell>
        <mxCell id="ipMqHxaG9Kqk90G_pu0r-114" style="edgeStyle=orthogonalEdgeStyle;rounded=0;orthogonalLoop=1;jettySize=auto;html=1;exitX=0.5;exitY=1;exitDx=0;exitDy=0;" parent="1" source="ipMqHxaG9Kqk90G_pu0r-112" target="ipMqHxaG9Kqk90G_pu0r-112" edge="1">
          <mxGeometry relative="1" as="geometry" />
        </mxCell>
        <mxCell id="ipMqHxaG9Kqk90G_pu0r-115" value="&lt;font style=&quot;font-size: 9px;&quot;&gt;Nombre_Apellido&lt;/font&gt;" style="ellipse;whiteSpace=wrap;html=1;fillColor=#fff2cc;strokeColor=#d6b656;" parent="1" vertex="1">
          <mxGeometry x="580" y="800" width="80" height="50" as="geometry" />
        </mxCell>
        <mxCell id="ipMqHxaG9Kqk90G_pu0r-116" value="" style="endArrow=none;html=1;rounded=0;exitX=1;exitY=1;exitDx=0;exitDy=0;entryX=0.16;entryY=0;entryDx=0;entryDy=0;entryPerimeter=0;" parent="1" source="ipMqHxaG9Kqk90G_pu0r-115" target="ipMqHxaG9Kqk90G_pu0r-3" edge="1">
          <mxGeometry width="50" height="50" relative="1" as="geometry">
            <mxPoint x="620" y="1005" as="sourcePoint" />
            <mxPoint x="570" y="850" as="targetPoint" />
          </mxGeometry>
        </mxCell>
        <mxCell id="ipMqHxaG9Kqk90G_pu0r-117" value="&lt;font style=&quot;font-size: 9px;&quot;&gt;Email&lt;/font&gt;" style="ellipse;whiteSpace=wrap;html=1;fillColor=#fff2cc;strokeColor=#d6b656;" parent="1" vertex="1">
          <mxGeometry x="567" y="935" width="80" height="50" as="geometry" />
        </mxCell>
        <mxCell id="ipMqHxaG9Kqk90G_pu0r-118" value="" style="endArrow=none;html=1;rounded=0;exitX=1;exitY=0.5;exitDx=0;exitDy=0;entryX=0;entryY=1;entryDx=0;entryDy=0;" parent="1" source="ipMqHxaG9Kqk90G_pu0r-117" target="ipMqHxaG9Kqk90G_pu0r-3" edge="1">
          <mxGeometry width="50" height="50" relative="1" as="geometry">
            <mxPoint x="710" y="1095" as="sourcePoint" />
            <mxPoint x="660" y="940" as="targetPoint" />
          </mxGeometry>
        </mxCell>
        <mxCell id="ipMqHxaG9Kqk90G_pu0r-119" value="&lt;font style=&quot;font-size: 9px;&quot;&gt;&lt;b&gt;&lt;u&gt;ID_Contacto&lt;/u&gt;&lt;/b&gt;&lt;/font&gt;" style="ellipse;whiteSpace=wrap;html=1;fillColor=#fff2cc;strokeColor=#d6b656;" parent="1" vertex="1">
          <mxGeometry x="740" y="800" width="80" height="50" as="geometry" />
        </mxCell>
        <mxCell id="ipMqHxaG9Kqk90G_pu0r-120" value="" style="endArrow=none;html=1;rounded=0;exitX=0;exitY=1;exitDx=0;exitDy=0;" parent="1" source="ipMqHxaG9Kqk90G_pu0r-119" edge="1">
          <mxGeometry width="50" height="50" relative="1" as="geometry">
            <mxPoint x="800" y="1145" as="sourcePoint" />
            <mxPoint x="740" y="870" as="targetPoint" />
          </mxGeometry>
        </mxCell>
        <mxCell id="ipMqHxaG9Kqk90G_pu0r-121" value="" style="ellipse;whiteSpace=wrap;html=1;fillColor=none;" parent="1" vertex="1">
          <mxGeometry x="575.75" y="940" width="62.5" height="40" as="geometry" />
        </mxCell>
        <mxCell id="ipMqHxaG9Kqk90G_pu0r-122" value="&lt;font style=&quot;font-size: 9px;&quot;&gt;Celular&lt;/font&gt;" style="ellipse;whiteSpace=wrap;html=1;fillColor=#fff2cc;strokeColor=#d6b656;" parent="1" vertex="1">
          <mxGeometry x="570" y="990" width="80" height="50" as="geometry" />
        </mxCell>
        <mxCell id="ipMqHxaG9Kqk90G_pu0r-123" value="" style="endArrow=none;html=1;rounded=0;exitX=1;exitY=0;exitDx=0;exitDy=0;entryX=0.13;entryY=0.99;entryDx=0;entryDy=0;entryPerimeter=0;" parent="1" source="ipMqHxaG9Kqk90G_pu0r-122" target="ipMqHxaG9Kqk90G_pu0r-3" edge="1">
          <mxGeometry width="50" height="50" relative="1" as="geometry">
            <mxPoint x="770" y="1115" as="sourcePoint" />
            <mxPoint x="720" y="960" as="targetPoint" />
          </mxGeometry>
        </mxCell>
        <mxCell id="ipMqHxaG9Kqk90G_pu0r-125" value="" style="endArrow=none;html=1;rounded=0;exitX=1;exitY=0.5;exitDx=0;exitDy=0;entryX=0.5;entryY=0;entryDx=0;entryDy=0;" parent="1" source="ipMqHxaG9Kqk90G_pu0r-33" target="ipMqHxaG9Kqk90G_pu0r-3" edge="1">
          <mxGeometry width="50" height="50" relative="1" as="geometry">
            <mxPoint x="420" y="690" as="sourcePoint" />
            <mxPoint x="470" y="640" as="targetPoint" />
            <Array as="points">
              <mxPoint x="710" y="710" />
            </Array>
          </mxGeometry>
        </mxCell>
        <mxCell id="ipMqHxaG9Kqk90G_pu0r-126" value="" style="endArrow=none;html=1;rounded=0;exitX=0.64;exitY=1.005;exitDx=0;exitDy=0;entryX=0;entryY=0.5;entryDx=0;entryDy=0;exitPerimeter=0;" parent="1" source="ipMqHxaG9Kqk90G_pu0r-11" target="ipMqHxaG9Kqk90G_pu0r-33" edge="1">
          <mxGeometry width="50" height="50" relative="1" as="geometry">
            <mxPoint x="420" y="690" as="sourcePoint" />
            <mxPoint x="470" y="640" as="targetPoint" />
            <Array as="points">
              <mxPoint x="160" y="710" />
            </Array>
          </mxGeometry>
        </mxCell>
        <mxCell id="ipMqHxaG9Kqk90G_pu0r-127" value="&lt;font style=&quot;font-size: 10px;&quot;&gt;Tienen&lt;/font&gt;" style="rhombus;whiteSpace=wrap;html=1;fillColor=#ffe6cc;strokeColor=#d79b00;" parent="1" vertex="1">
          <mxGeometry x="470" y="850" width="80" height="80" as="geometry" />
        </mxCell>
        <mxCell id="ipMqHxaG9Kqk90G_pu0r-129" value="" style="endArrow=none;html=1;rounded=0;exitX=1;exitY=0.5;exitDx=0;exitDy=0;entryX=0;entryY=0.5;entryDx=0;entryDy=0;" parent="1" source="ipMqHxaG9Kqk90G_pu0r-4" target="ipMqHxaG9Kqk90G_pu0r-127" edge="1">
          <mxGeometry width="50" height="50" relative="1" as="geometry">
            <mxPoint x="401" y="830" as="sourcePoint" />
            <mxPoint x="710" y="830" as="targetPoint" />
            <Array as="points" />
          </mxGeometry>
        </mxCell>
        <mxCell id="ipMqHxaG9Kqk90G_pu0r-130" value="" style="endArrow=none;html=1;rounded=0;entryX=0;entryY=0.5;entryDx=0;entryDy=0;exitX=1;exitY=0.595;exitDx=0;exitDy=0;exitPerimeter=0;" parent="1" source="ipMqHxaG9Kqk90G_pu0r-4" target="ipMqHxaG9Kqk90G_pu0r-4" edge="1">
          <mxGeometry width="50" height="50" relative="1" as="geometry">
            <mxPoint x="401" y="830" as="sourcePoint" />
            <mxPoint x="520" y="900" as="targetPoint" />
            <Array as="points" />
          </mxGeometry>
        </mxCell>
        <mxCell id="ipMqHxaG9Kqk90G_pu0r-4" value="&lt;b&gt;&lt;font style=&quot;font-size: 10px;&quot;&gt;PROVEEDORES&lt;/font&gt;&lt;/b&gt;" style="whiteSpace=wrap;html=1;aspect=fixed;fillColor=#dae8fc;strokeColor=#6c8ebf;" parent="1" vertex="1">
          <mxGeometry x="350" y="850" width="80" height="80" as="geometry" />
        </mxCell>
        <mxCell id="ipMqHxaG9Kqk90G_pu0r-131" value="" style="endArrow=none;html=1;rounded=0;entryX=0;entryY=0.25;entryDx=0;entryDy=0;exitX=1;exitY=0.5;exitDx=0;exitDy=0;" parent="1" source="ipMqHxaG9Kqk90G_pu0r-127" target="ipMqHxaG9Kqk90G_pu0r-3" edge="1">
          <mxGeometry width="50" height="50" relative="1" as="geometry">
            <mxPoint x="420" y="890" as="sourcePoint" />
            <mxPoint x="470" y="840" as="targetPoint" />
          </mxGeometry>
        </mxCell>
        <mxCell id="ipMqHxaG9Kqk90G_pu0r-132" value="&lt;font style=&quot;font-size: 9px;&quot;&gt;Ultimo_Costo_&lt;/font&gt;&lt;div&gt;&lt;font style=&quot;font-size: 9px;&quot;&gt;Fabricado&lt;/font&gt;&lt;/div&gt;" style="ellipse;whiteSpace=wrap;html=1;fillColor=#fff2cc;strokeColor=#d6b656;" parent="1" vertex="1">
          <mxGeometry x="600" y="460" width="80" height="50" as="geometry" />
        </mxCell>
        <mxCell id="ipMqHxaG9Kqk90G_pu0r-133" value="" style="endArrow=none;html=1;rounded=0;exitX=0.5;exitY=0;exitDx=0;exitDy=0;entryX=0.36;entryY=1;entryDx=0;entryDy=0;entryPerimeter=0;" parent="1" source="ipMqHxaG9Kqk90G_pu0r-132" target="ipMqHxaG9Kqk90G_pu0r-6" edge="1">
          <mxGeometry width="50" height="50" relative="1" as="geometry">
            <mxPoint x="690" y="575" as="sourcePoint" />
            <mxPoint x="620" y="430" as="targetPoint" />
          </mxGeometry>
        </mxCell>
        <mxCell id="ipMqHxaG9Kqk90G_pu0r-135" value="&lt;font style=&quot;font-size: 9px;&quot;&gt;ID_Producto&lt;/font&gt;" style="ellipse;whiteSpace=wrap;html=1;fillColor=#fff2cc;strokeColor=#d6b656;" parent="1" vertex="1">
          <mxGeometry x="740" y="300" width="80" height="50" as="geometry" />
        </mxCell>
        <mxCell id="ipMqHxaG9Kqk90G_pu0r-136" value="" style="endArrow=none;html=1;rounded=0;entryX=1;entryY=0;entryDx=0;entryDy=0;" parent="1" source="ipMqHxaG9Kqk90G_pu0r-135" target="ipMqHxaG9Kqk90G_pu0r-6" edge="1">
          <mxGeometry width="50" height="50" relative="1" as="geometry">
            <mxPoint x="800" y="595" as="sourcePoint" />
            <mxPoint x="730" y="450" as="targetPoint" />
          </mxGeometry>
        </mxCell>
        <mxCell id="ipMqHxaG9Kqk90G_pu0r-137" value="&lt;font style=&quot;font-size: 9px;&quot;&gt;Precio&lt;/font&gt;" style="ellipse;whiteSpace=wrap;html=1;fillColor=#fff2cc;strokeColor=#d6b656;" parent="1" vertex="1">
          <mxGeometry x="660" y="500" width="80" height="50" as="geometry" />
        </mxCell>
        <mxCell id="ipMqHxaG9Kqk90G_pu0r-138" value="" style="endArrow=none;html=1;rounded=0;exitX=0.5;exitY=0;exitDx=0;exitDy=0;entryX=0.5;entryY=1;entryDx=0;entryDy=0;" parent="1" source="ipMqHxaG9Kqk90G_pu0r-137" target="ipMqHxaG9Kqk90G_pu0r-6" edge="1">
          <mxGeometry width="50" height="50" relative="1" as="geometry">
            <mxPoint x="810" y="605" as="sourcePoint" />
            <mxPoint x="740" y="460" as="targetPoint" />
          </mxGeometry>
        </mxCell>
        <mxCell id="ipMqHxaG9Kqk90G_pu0r-139" value="&lt;font style=&quot;font-size: 9px;&quot;&gt;&lt;b&gt;&lt;u&gt;ID_Stock&lt;/u&gt;&lt;/b&gt;&lt;/font&gt;" style="ellipse;whiteSpace=wrap;html=1;fillColor=#fff2cc;strokeColor=#d6b656;" parent="1" vertex="1">
          <mxGeometry x="630" y="285" width="80" height="50" as="geometry" />
        </mxCell>
        <mxCell id="ipMqHxaG9Kqk90G_pu0r-140" value="" style="endArrow=none;html=1;rounded=0;exitX=0.5;exitY=1;exitDx=0;exitDy=0;entryX=0.25;entryY=0;entryDx=0;entryDy=0;" parent="1" source="ipMqHxaG9Kqk90G_pu0r-139" target="ipMqHxaG9Kqk90G_pu0r-6" edge="1">
          <mxGeometry width="50" height="50" relative="1" as="geometry">
            <mxPoint x="820" y="615" as="sourcePoint" />
            <mxPoint x="750" y="470" as="targetPoint" />
          </mxGeometry>
        </mxCell>
        <mxCell id="ipMqHxaG9Kqk90G_pu0r-142" value="&lt;font style=&quot;font-size: 10px;&quot;&gt;Ubican&lt;/font&gt;" style="rhombus;whiteSpace=wrap;html=1;fillColor=#ffe6cc;strokeColor=#d79b00;" parent="1" vertex="1">
          <mxGeometry x="350" y="1000" width="80" height="80" as="geometry" />
        </mxCell>
        <mxCell id="ipMqHxaG9Kqk90G_pu0r-143" value="&lt;font style=&quot;font-size: 10px;&quot;&gt;Ubican&lt;/font&gt;" style="rhombus;whiteSpace=wrap;html=1;fillColor=#ffe6cc;strokeColor=#d79b00;" parent="1" vertex="1">
          <mxGeometry y="708" width="80" height="80" as="geometry" />
        </mxCell>
        <mxCell id="ipMqHxaG9Kqk90G_pu0r-144" value="" style="endArrow=none;html=1;rounded=0;exitX=1;exitY=1;exitDx=0;exitDy=0;entryX=0;entryY=0.5;entryDx=0;entryDy=0;" parent="1" source="ipMqHxaG9Kqk90G_pu0r-154" target="ipMqHxaG9Kqk90G_pu0r-11" edge="1">
          <mxGeometry width="50" height="50" relative="1" as="geometry">
            <mxPoint x="420" y="890" as="sourcePoint" />
            <mxPoint x="470" y="840" as="targetPoint" />
            <Array as="points" />
          </mxGeometry>
        </mxCell>
        <mxCell id="ipMqHxaG9Kqk90G_pu0r-145" value="" style="endArrow=none;html=1;rounded=0;exitX=0;exitY=0.5;exitDx=0;exitDy=0;entryX=0.5;entryY=1;entryDx=0;entryDy=0;" parent="1" source="ipMqHxaG9Kqk90G_pu0r-12" target="ipMqHxaG9Kqk90G_pu0r-143" edge="1">
          <mxGeometry width="50" height="50" relative="1" as="geometry">
            <mxPoint x="420" y="890" as="sourcePoint" />
            <mxPoint x="470" y="840" as="targetPoint" />
            <Array as="points">
              <mxPoint x="40" y="1060" />
            </Array>
          </mxGeometry>
        </mxCell>
        <mxCell id="ipMqHxaG9Kqk90G_pu0r-146" value="" style="endArrow=none;html=1;rounded=0;exitX=0.5;exitY=0;exitDx=0;exitDy=0;entryX=0.5;entryY=1;entryDx=0;entryDy=0;" parent="1" source="ipMqHxaG9Kqk90G_pu0r-142" target="ipMqHxaG9Kqk90G_pu0r-4" edge="1">
          <mxGeometry width="50" height="50" relative="1" as="geometry">
            <mxPoint x="420" y="890" as="sourcePoint" />
            <mxPoint x="470" y="840" as="targetPoint" />
          </mxGeometry>
        </mxCell>
        <mxCell id="ipMqHxaG9Kqk90G_pu0r-147" value="" style="endArrow=none;html=1;rounded=0;exitX=1;exitY=0.25;exitDx=0;exitDy=0;entryX=0;entryY=0.5;entryDx=0;entryDy=0;" parent="1" source="ipMqHxaG9Kqk90G_pu0r-12" target="ipMqHxaG9Kqk90G_pu0r-142" edge="1">
          <mxGeometry width="50" height="50" relative="1" as="geometry">
            <mxPoint x="420" y="890" as="sourcePoint" />
            <mxPoint x="470" y="840" as="targetPoint" />
          </mxGeometry>
        </mxCell>
        <mxCell id="ipMqHxaG9Kqk90G_pu0r-148" value="&lt;font style=&quot;font-size: 9px;&quot;&gt;Tipo_Cliente&lt;/font&gt;" style="ellipse;whiteSpace=wrap;html=1;fillColor=#fff2cc;strokeColor=#d6b656;" parent="1" vertex="1">
          <mxGeometry x="80" y="480" width="80" height="50" as="geometry" />
        </mxCell>
        <mxCell id="ipMqHxaG9Kqk90G_pu0r-149" value="" style="endArrow=none;html=1;rounded=0;exitX=0.5;exitY=1;exitDx=0;exitDy=0;entryX=0.5;entryY=0;entryDx=0;entryDy=0;" parent="1" source="ipMqHxaG9Kqk90G_pu0r-148" target="ipMqHxaG9Kqk90G_pu0r-11" edge="1">
          <mxGeometry width="50" height="50" relative="1" as="geometry">
            <mxPoint x="630" y="1015" as="sourcePoint" />
            <mxPoint x="693" y="880" as="targetPoint" />
          </mxGeometry>
        </mxCell>
        <mxCell id="ipMqHxaG9Kqk90G_pu0r-150" value="&lt;font style=&quot;font-size: 9px;&quot;&gt;&lt;b&gt;&lt;u&gt;ID_Cliente&lt;/u&gt;&lt;/b&gt;&lt;/font&gt;" style="ellipse;whiteSpace=wrap;html=1;fillColor=#fff2cc;strokeColor=#d6b656;" parent="1" vertex="1">
          <mxGeometry y="482" width="80" height="50" as="geometry" />
        </mxCell>
        <mxCell id="ipMqHxaG9Kqk90G_pu0r-151" value="" style="endArrow=none;html=1;rounded=0;exitX=1;exitY=1;exitDx=0;exitDy=0;entryX=0;entryY=0.25;entryDx=0;entryDy=0;" parent="1" source="ipMqHxaG9Kqk90G_pu0r-150" target="ipMqHxaG9Kqk90G_pu0r-11" edge="1">
          <mxGeometry width="50" height="50" relative="1" as="geometry">
            <mxPoint x="640" y="1025" as="sourcePoint" />
            <mxPoint x="703" y="890" as="targetPoint" />
          </mxGeometry>
        </mxCell>
        <mxCell id="ipMqHxaG9Kqk90G_pu0r-152" value="&lt;font style=&quot;font-size: 9px;&quot;&gt;ID_Contacto&lt;/font&gt;" style="ellipse;whiteSpace=wrap;html=1;fillColor=#fff2cc;strokeColor=#d6b656;" parent="1" vertex="1">
          <mxGeometry x="178" y="658" width="82" height="42" as="geometry" />
        </mxCell>
        <mxCell id="ipMqHxaG9Kqk90G_pu0r-153" value="" style="endArrow=none;html=1;rounded=0;exitX=0;exitY=0;exitDx=0;exitDy=0;entryX=1;entryY=1;entryDx=0;entryDy=0;" parent="1" source="ipMqHxaG9Kqk90G_pu0r-152" target="ipMqHxaG9Kqk90G_pu0r-11" edge="1">
          <mxGeometry width="50" height="50" relative="1" as="geometry">
            <mxPoint x="650" y="1035" as="sourcePoint" />
            <mxPoint x="713" y="900" as="targetPoint" />
          </mxGeometry>
        </mxCell>
        <mxCell id="ipMqHxaG9Kqk90G_pu0r-156" value="&lt;font style=&quot;font-size: 9px;&quot;&gt;Dirección&lt;/font&gt;" style="ellipse;whiteSpace=wrap;html=1;fillColor=#fff2cc;strokeColor=#d6b656;" parent="1" vertex="1">
          <mxGeometry x="568.75" y="657" width="80" height="50" as="geometry" />
        </mxCell>
        <mxCell id="ipMqHxaG9Kqk90G_pu0r-159" value="" style="endArrow=none;html=1;rounded=0;exitX=0;exitY=0.75;exitDx=0;exitDy=0;entryX=1;entryY=0.5;entryDx=0;entryDy=0;" parent="1" source="ipMqHxaG9Kqk90G_pu0r-5" target="ipMqHxaG9Kqk90G_pu0r-156" edge="1">
          <mxGeometry width="50" height="50" relative="1" as="geometry">
            <mxPoint x="762" y="853" as="sourcePoint" />
            <mxPoint x="750" y="880" as="targetPoint" />
          </mxGeometry>
        </mxCell>
        <mxCell id="ipMqHxaG9Kqk90G_pu0r-160" value="&lt;font style=&quot;font-size: 9px;&quot;&gt;Cantidad_&lt;/font&gt;&lt;div&gt;&lt;font style=&quot;font-size: 9px;&quot;&gt;Vendedores&lt;/font&gt;&lt;/div&gt;" style="ellipse;whiteSpace=wrap;html=1;fillColor=#fff2cc;strokeColor=#d6b656;" parent="1" vertex="1">
          <mxGeometry x="740" y="570" width="80" height="50" as="geometry" />
        </mxCell>
        <mxCell id="ipMqHxaG9Kqk90G_pu0r-161" value="" style="endArrow=none;html=1;rounded=0;entryX=0.5;entryY=1;entryDx=0;entryDy=0;exitX=1.038;exitY=0.375;exitDx=0;exitDy=0;exitPerimeter=0;" parent="1" source="ipMqHxaG9Kqk90G_pu0r-5" target="ipMqHxaG9Kqk90G_pu0r-160" edge="1">
          <mxGeometry width="50" height="50" relative="1" as="geometry">
            <mxPoint x="750" y="650" as="sourcePoint" />
            <mxPoint x="760" y="890" as="targetPoint" />
            <Array as="points">
              <mxPoint x="780" y="640" />
            </Array>
          </mxGeometry>
        </mxCell>
        <mxCell id="ipMqHxaG9Kqk90G_pu0r-162" value="&lt;font style=&quot;font-size: 9px;&quot;&gt;ID_Localidad&lt;/font&gt;" style="ellipse;whiteSpace=wrap;html=1;fillColor=#fff2cc;strokeColor=#d6b656;" parent="1" vertex="1">
          <mxGeometry x="739.38" y="700" width="80" height="50" as="geometry" />
        </mxCell>
        <mxCell id="ipMqHxaG9Kqk90G_pu0r-163" value="" style="endArrow=none;html=1;rounded=0;exitX=1;exitY=1;exitDx=0;exitDy=0;entryX=0.5;entryY=0;entryDx=0;entryDy=0;" parent="1" source="ipMqHxaG9Kqk90G_pu0r-5" target="ipMqHxaG9Kqk90G_pu0r-162" edge="1">
          <mxGeometry width="50" height="50" relative="1" as="geometry">
            <mxPoint x="690" y="690" as="sourcePoint" />
            <mxPoint x="770" y="900" as="targetPoint" />
          </mxGeometry>
        </mxCell>
        <mxCell id="ipMqHxaG9Kqk90G_pu0r-164" value="&lt;font style=&quot;font-size: 9px;&quot;&gt;Tienda&lt;/font&gt;" style="ellipse;whiteSpace=wrap;html=1;fillColor=#fff2cc;strokeColor=#d6b656;" parent="1" vertex="1">
          <mxGeometry x="659.38" y="553" width="80" height="50" as="geometry" />
        </mxCell>
        <mxCell id="ipMqHxaG9Kqk90G_pu0r-165" value="" style="endArrow=none;html=1;rounded=0;exitX=0.5;exitY=0;exitDx=0;exitDy=0;entryX=0.5;entryY=1;entryDx=0;entryDy=0;" parent="1" source="ipMqHxaG9Kqk90G_pu0r-5" target="ipMqHxaG9Kqk90G_pu0r-164" edge="1">
          <mxGeometry width="50" height="50" relative="1" as="geometry">
            <mxPoint x="700" y="700" as="sourcePoint" />
            <mxPoint x="780" y="910" as="targetPoint" />
          </mxGeometry>
        </mxCell>
        <mxCell id="ipMqHxaG9Kqk90G_pu0r-166" value="&lt;font style=&quot;font-size: 9px;&quot;&gt;&lt;b&gt;&lt;u&gt;ID_Tienda&lt;/u&gt;&lt;/b&gt;&lt;/font&gt;" style="ellipse;whiteSpace=wrap;html=1;fillColor=#fff2cc;strokeColor=#d6b656;" parent="1" vertex="1">
          <mxGeometry x="579.38" y="575" width="80" height="50" as="geometry" />
        </mxCell>
        <mxCell id="ipMqHxaG9Kqk90G_pu0r-167" value="" style="endArrow=none;html=1;rounded=0;exitX=0;exitY=0;exitDx=0;exitDy=0;entryX=1;entryY=0.5;entryDx=0;entryDy=0;" parent="1" source="ipMqHxaG9Kqk90G_pu0r-5" target="ipMqHxaG9Kqk90G_pu0r-166" edge="1">
          <mxGeometry width="50" height="50" relative="1" as="geometry">
            <mxPoint x="680.63" y="585" as="sourcePoint" />
            <mxPoint x="760.63" y="795" as="targetPoint" />
          </mxGeometry>
        </mxCell>
        <mxCell id="ipMqHxaG9Kqk90G_pu0r-168" value="&lt;font style=&quot;font-size: 9px;&quot;&gt;Denominación_&lt;/font&gt;&lt;div&gt;&lt;font style=&quot;font-size: 9px;&quot;&gt;Social&lt;/font&gt;&lt;/div&gt;" style="ellipse;whiteSpace=wrap;html=1;fillColor=#fff2cc;strokeColor=#d6b656;" parent="1" vertex="1">
          <mxGeometry x="170" y="480" width="80" height="50" as="geometry" />
        </mxCell>
        <mxCell id="ipMqHxaG9Kqk90G_pu0r-169" value="" style="endArrow=none;html=1;rounded=0;exitX=0.5;exitY=1;exitDx=0;exitDy=0;entryX=1;entryY=0;entryDx=0;entryDy=0;" parent="1" source="ipMqHxaG9Kqk90G_pu0r-168" target="ipMqHxaG9Kqk90G_pu0r-11" edge="1">
          <mxGeometry width="50" height="50" relative="1" as="geometry">
            <mxPoint x="720" y="1030" as="sourcePoint" />
            <mxPoint x="192" y="573" as="targetPoint" />
          </mxGeometry>
        </mxCell>
        <mxCell id="ipMqHxaG9Kqk90G_pu0r-170" value="&lt;font style=&quot;font-size: 9px;&quot;&gt;Razon_Social&lt;/font&gt;" style="ellipse;whiteSpace=wrap;html=1;fillColor=#fff2cc;strokeColor=#d6b656;" parent="1" vertex="1">
          <mxGeometry x="210" y="540" width="80" height="50" as="geometry" />
        </mxCell>
        <mxCell id="ipMqHxaG9Kqk90G_pu0r-171" value="" style="endArrow=none;html=1;rounded=0;exitX=0.04;exitY=0.728;exitDx=0;exitDy=0;entryX=1;entryY=0.25;entryDx=0;entryDy=0;exitPerimeter=0;" parent="1" source="ipMqHxaG9Kqk90G_pu0r-170" target="ipMqHxaG9Kqk90G_pu0r-11" edge="1">
          <mxGeometry width="50" height="50" relative="1" as="geometry">
            <mxPoint x="670" y="925" as="sourcePoint" />
            <mxPoint x="210" y="530" as="targetPoint" />
          </mxGeometry>
        </mxCell>
        <mxCell id="ipMqHxaG9Kqk90G_pu0r-175" value="&lt;font style=&quot;font-size: 9px;&quot;&gt;Direccion&lt;/font&gt;" style="ellipse;whiteSpace=wrap;html=1;fillColor=#fff2cc;strokeColor=#d6b656;" parent="1" vertex="1">
          <mxGeometry x="50" y="640" width="80" height="50" as="geometry" />
        </mxCell>
        <mxCell id="ipMqHxaG9Kqk90G_pu0r-176" value="" style="endArrow=none;html=1;rounded=0;exitX=0.5;exitY=0;exitDx=0;exitDy=0;entryX=0;entryY=0.75;entryDx=0;entryDy=0;" parent="1" source="ipMqHxaG9Kqk90G_pu0r-175" target="ipMqHxaG9Kqk90G_pu0r-11" edge="1">
          <mxGeometry width="50" height="50" relative="1" as="geometry">
            <mxPoint x="670" y="1055" as="sourcePoint" />
            <mxPoint x="143" y="643" as="targetPoint" />
            <Array as="points" />
          </mxGeometry>
        </mxCell>
        <mxCell id="ipMqHxaG9Kqk90G_pu0r-177" value="&lt;font style=&quot;font-size: 9px;&quot;&gt;CUIT&lt;/font&gt;" style="ellipse;whiteSpace=wrap;html=1;fillColor=#fff2cc;strokeColor=#d6b656;" parent="1" vertex="1">
          <mxGeometry x="200" y="607" width="80" height="50" as="geometry" />
        </mxCell>
        <mxCell id="ipMqHxaG9Kqk90G_pu0r-178" value="" style="endArrow=none;html=1;rounded=0;exitX=0;exitY=0.5;exitDx=0;exitDy=0;entryX=1;entryY=0.75;entryDx=0;entryDy=0;" parent="1" source="ipMqHxaG9Kqk90G_pu0r-177" target="ipMqHxaG9Kqk90G_pu0r-11" edge="1">
          <mxGeometry width="50" height="50" relative="1" as="geometry">
            <mxPoint x="680" y="1065" as="sourcePoint" />
            <mxPoint x="130" y="660" as="targetPoint" />
          </mxGeometry>
        </mxCell>
        <mxCell id="ipMqHxaG9Kqk90G_pu0r-180" value="&lt;font style=&quot;font-size: 9px;&quot;&gt;Precio_Venta&lt;/font&gt;" style="ellipse;whiteSpace=wrap;html=1;fillColor=#fff2cc;strokeColor=#d6b656;" parent="1" vertex="1">
          <mxGeometry x="360" y="720" width="80" height="50" as="geometry" />
        </mxCell>
        <mxCell id="ipMqHxaG9Kqk90G_pu0r-181" value="" style="endArrow=none;html=1;rounded=0;entryX=0.5;entryY=0;entryDx=0;entryDy=0;" parent="1" target="ipMqHxaG9Kqk90G_pu0r-180" edge="1">
          <mxGeometry width="50" height="50" relative="1" as="geometry">
            <mxPoint x="440" y="480" as="sourcePoint" />
            <mxPoint x="760" y="890" as="targetPoint" />
            <Array as="points" />
          </mxGeometry>
        </mxCell>
        <mxCell id="ipMqHxaG9Kqk90G_pu0r-182" value="&lt;font style=&quot;font-size: 9px;&quot;&gt;Cantidad&lt;/font&gt;" style="ellipse;whiteSpace=wrap;html=1;fillColor=#fff2cc;strokeColor=#d6b656;" parent="1" vertex="1">
          <mxGeometry x="461.25" y="720" width="78.75" height="50" as="geometry" />
        </mxCell>
        <mxCell id="ipMqHxaG9Kqk90G_pu0r-183" value="" style="endArrow=none;html=1;rounded=0;entryX=0.5;entryY=0;entryDx=0;entryDy=0;" parent="1" target="ipMqHxaG9Kqk90G_pu0r-182" edge="1">
          <mxGeometry width="50" height="50" relative="1" as="geometry">
            <mxPoint x="460" y="480" as="sourcePoint" />
            <mxPoint x="770" y="900" as="targetPoint" />
          </mxGeometry>
        </mxCell>
        <mxCell id="ipMqHxaG9Kqk90G_pu0r-184" value="&lt;font style=&quot;font-size: 9px;&quot;&gt;Fecha&lt;/font&gt;" style="ellipse;whiteSpace=wrap;html=1;fillColor=#fff2cc;strokeColor=#d6b656;" parent="1" vertex="1">
          <mxGeometry x="490" y="362" width="80" height="50" as="geometry" />
        </mxCell>
        <mxCell id="ipMqHxaG9Kqk90G_pu0r-185" value="" style="endArrow=none;html=1;rounded=0;exitX=1;exitY=0.25;exitDx=0;exitDy=0;" parent="1" source="ipMqHxaG9Kqk90G_pu0r-7" edge="1">
          <mxGeometry width="50" height="50" relative="1" as="geometry">
            <mxPoint x="697" y="700" as="sourcePoint" />
            <mxPoint x="520" y="410" as="targetPoint" />
          </mxGeometry>
        </mxCell>
        <mxCell id="ipMqHxaG9Kqk90G_pu0r-186" value="&lt;font style=&quot;font-size: 9px;&quot;&gt;Importe Final&lt;/font&gt;" style="ellipse;whiteSpace=wrap;html=1;fillColor=#fff2cc;strokeColor=#d6b656;dashed=1;" parent="1" vertex="1">
          <mxGeometry x="310" y="390" width="80" height="50" as="geometry" />
        </mxCell>
        <mxCell id="ipMqHxaG9Kqk90G_pu0r-187" value="" style="endArrow=none;html=1;rounded=0;entryX=1;entryY=0.5;entryDx=0;entryDy=0;" parent="1" target="ipMqHxaG9Kqk90G_pu0r-186" edge="1">
          <mxGeometry width="50" height="50" relative="1" as="geometry">
            <mxPoint x="410" y="440" as="sourcePoint" />
            <mxPoint x="790" y="920" as="targetPoint" />
          </mxGeometry>
        </mxCell>
        <mxCell id="ipMqHxaG9Kqk90G_pu0r-188" value="&lt;font style=&quot;font-size: 9px;&quot;&gt;Factura&lt;/font&gt;" style="ellipse;whiteSpace=wrap;html=1;fillColor=#fff2cc;strokeColor=#d6b656;" parent="1" vertex="1">
          <mxGeometry x="488.75" y="480" width="80" height="50" as="geometry" />
        </mxCell>
        <mxCell id="ipMqHxaG9Kqk90G_pu0r-189" value="" style="endArrow=none;html=1;rounded=0;exitX=1.02;exitY=0.905;exitDx=0;exitDy=0;entryX=0.336;entryY=0.024;entryDx=0;entryDy=0;exitPerimeter=0;entryPerimeter=0;" parent="1" source="ipMqHxaG9Kqk90G_pu0r-7" target="ipMqHxaG9Kqk90G_pu0r-188" edge="1">
          <mxGeometry width="50" height="50" relative="1" as="geometry">
            <mxPoint x="717" y="720" as="sourcePoint" />
            <mxPoint x="800" y="930" as="targetPoint" />
          </mxGeometry>
        </mxCell>
        <mxCell id="ipMqHxaG9Kqk90G_pu0r-190" value="&lt;font style=&quot;font-size: 9px;&quot;&gt;&lt;b&gt;&lt;u&gt;ID_Venta&lt;/u&gt;&lt;/b&gt;&lt;/font&gt;" style="ellipse;whiteSpace=wrap;html=1;fillColor=#fff2cc;strokeColor=#d6b656;" parent="1" vertex="1">
          <mxGeometry x="450" y="312" width="80" height="50" as="geometry" />
        </mxCell>
        <mxCell id="ipMqHxaG9Kqk90G_pu0r-191" value="" style="endArrow=none;html=1;rounded=0;exitX=0.75;exitY=0;exitDx=0;exitDy=0;entryX=0.5;entryY=1;entryDx=0;entryDy=0;" parent="1" source="ipMqHxaG9Kqk90G_pu0r-7" target="ipMqHxaG9Kqk90G_pu0r-190" edge="1">
          <mxGeometry width="50" height="50" relative="1" as="geometry">
            <mxPoint x="727" y="730" as="sourcePoint" />
            <mxPoint x="810" y="940" as="targetPoint" />
          </mxGeometry>
        </mxCell>
        <mxCell id="ipMqHxaG9Kqk90G_pu0r-192" value="&lt;font style=&quot;font-size: 9px;&quot;&gt;Otros Impuestos&lt;/font&gt;" style="ellipse;whiteSpace=wrap;html=1;fillColor=#fff2cc;strokeColor=#d6b656;" parent="1" vertex="1">
          <mxGeometry x="320" y="465" width="80" height="50" as="geometry" />
        </mxCell>
        <mxCell id="ipMqHxaG9Kqk90G_pu0r-193" value="" style="endArrow=none;html=1;rounded=0;entryX=1;entryY=0.5;entryDx=0;entryDy=0;" parent="1" source="ipMqHxaG9Kqk90G_pu0r-7" target="ipMqHxaG9Kqk90G_pu0r-192" edge="1">
          <mxGeometry width="50" height="50" relative="1" as="geometry">
            <mxPoint x="737" y="740" as="sourcePoint" />
            <mxPoint x="820" y="950" as="targetPoint" />
          </mxGeometry>
        </mxCell>
        <mxCell id="ipMqHxaG9Kqk90G_pu0r-194" value="&lt;font style=&quot;font-size: 9px;&quot;&gt;ID_Vendedor&lt;/font&gt;" style="ellipse;whiteSpace=wrap;html=1;fillColor=#fff2cc;strokeColor=#d6b656;" parent="1" vertex="1">
          <mxGeometry x="460" y="657" width="80" height="50" as="geometry" />
        </mxCell>
        <mxCell id="ipMqHxaG9Kqk90G_pu0r-195" value="" style="endArrow=none;html=1;rounded=0;entryX=0;entryY=0;entryDx=0;entryDy=0;" parent="1" target="ipMqHxaG9Kqk90G_pu0r-194" edge="1">
          <mxGeometry width="50" height="50" relative="1" as="geometry">
            <mxPoint x="460" y="480" as="sourcePoint" />
            <mxPoint x="830" y="960" as="targetPoint" />
          </mxGeometry>
        </mxCell>
        <mxCell id="ipMqHxaG9Kqk90G_pu0r-196" value="&lt;font style=&quot;font-size: 9px;&quot;&gt;Precio_Actualizado&lt;/font&gt;" style="ellipse;whiteSpace=wrap;html=1;fillColor=#fff2cc;strokeColor=#d6b656;" parent="1" vertex="1">
          <mxGeometry x="370" y="658" width="80" height="50" as="geometry" />
        </mxCell>
        <mxCell id="ipMqHxaG9Kqk90G_pu0r-197" value="" style="endArrow=none;html=1;rounded=0;exitX=0.37;exitY=0.995;exitDx=0;exitDy=0;entryX=0.5;entryY=0;entryDx=0;entryDy=0;exitPerimeter=0;" parent="1" source="ipMqHxaG9Kqk90G_pu0r-7" target="ipMqHxaG9Kqk90G_pu0r-196" edge="1">
          <mxGeometry width="50" height="50" relative="1" as="geometry">
            <mxPoint x="757" y="760" as="sourcePoint" />
            <mxPoint x="840" y="970" as="targetPoint" />
          </mxGeometry>
        </mxCell>
        <mxCell id="ipMqHxaG9Kqk90G_pu0r-198" value="&lt;font style=&quot;font-size: 9px;&quot;&gt;ID_Producto&lt;/font&gt;" style="ellipse;whiteSpace=wrap;html=1;fillColor=#fff2cc;strokeColor=#d6b656;" parent="1" vertex="1">
          <mxGeometry x="488.75" y="535" width="80" height="50" as="geometry" />
        </mxCell>
        <mxCell id="ipMqHxaG9Kqk90G_pu0r-199" value="" style="endArrow=none;html=1;rounded=0;exitX=0.75;exitY=1;exitDx=0;exitDy=0;entryX=0.366;entryY=0.028;entryDx=0;entryDy=0;entryPerimeter=0;" parent="1" source="ipMqHxaG9Kqk90G_pu0r-7" target="ipMqHxaG9Kqk90G_pu0r-198" edge="1">
          <mxGeometry width="50" height="50" relative="1" as="geometry">
            <mxPoint x="767" y="770" as="sourcePoint" />
            <mxPoint x="850" y="980" as="targetPoint" />
          </mxGeometry>
        </mxCell>
        <mxCell id="ipMqHxaG9Kqk90G_pu0r-200" value="&lt;font style=&quot;font-size: 9px;&quot;&gt;ID_Tienda&lt;/font&gt;" style="ellipse;whiteSpace=wrap;html=1;fillColor=#fff2cc;strokeColor=#d6b656;" parent="1" vertex="1">
          <mxGeometry x="460" y="590" width="80" height="50" as="geometry" />
        </mxCell>
        <mxCell id="ipMqHxaG9Kqk90G_pu0r-201" value="" style="endArrow=none;html=1;rounded=0;entryX=0.5;entryY=0;entryDx=0;entryDy=0;" parent="1" source="ipMqHxaG9Kqk90G_pu0r-7" target="ipMqHxaG9Kqk90G_pu0r-200" edge="1">
          <mxGeometry width="50" height="50" relative="1" as="geometry">
            <mxPoint x="460" y="480" as="sourcePoint" />
            <mxPoint x="860" y="990" as="targetPoint" />
          </mxGeometry>
        </mxCell>
        <mxCell id="ipMqHxaG9Kqk90G_pu0r-202" value="&lt;font style=&quot;font-size: 9px;&quot;&gt;IVA&lt;/font&gt;" style="ellipse;whiteSpace=wrap;html=1;fillColor=#fff2cc;strokeColor=#d6b656;dashed=1;" parent="1" vertex="1">
          <mxGeometry x="326" y="523" width="80" height="50" as="geometry" />
        </mxCell>
        <mxCell id="ipMqHxaG9Kqk90G_pu0r-203" value="" style="endArrow=none;html=1;rounded=0;entryX=0.61;entryY=0.04;entryDx=0;entryDy=0;entryPerimeter=0;" parent="1" target="ipMqHxaG9Kqk90G_pu0r-202" edge="1">
          <mxGeometry width="50" height="50" relative="1" as="geometry">
            <mxPoint x="430" y="480" as="sourcePoint" />
            <mxPoint x="870" y="1000" as="targetPoint" />
          </mxGeometry>
        </mxCell>
        <mxCell id="ipMqHxaG9Kqk90G_pu0r-204" value="&lt;font style=&quot;font-size: 9px;&quot;&gt;Importe&lt;/font&gt;" style="ellipse;whiteSpace=wrap;html=1;fillColor=#fff2cc;strokeColor=#d6b656;dashed=1;" parent="1" vertex="1">
          <mxGeometry x="360" y="590" width="80" height="50" as="geometry" />
        </mxCell>
        <mxCell id="ipMqHxaG9Kqk90G_pu0r-205" value="" style="endArrow=none;html=1;rounded=0;exitX=0.25;exitY=1;exitDx=0;exitDy=0;entryX=0.5;entryY=0;entryDx=0;entryDy=0;" parent="1" source="ipMqHxaG9Kqk90G_pu0r-7" target="ipMqHxaG9Kqk90G_pu0r-204" edge="1">
          <mxGeometry width="50" height="50" relative="1" as="geometry">
            <mxPoint x="797" y="800" as="sourcePoint" />
            <mxPoint x="880" y="1010" as="targetPoint" />
          </mxGeometry>
        </mxCell>
        <mxCell id="ipMqHxaG9Kqk90G_pu0r-209" value="" style="ellipse;whiteSpace=wrap;html=1;fillColor=none;" parent="1" vertex="1">
          <mxGeometry x="210" y="612" width="62.5" height="40" as="geometry" />
        </mxCell>
        <mxCell id="ipMqHxaG9Kqk90G_pu0r-210" value="&lt;font style=&quot;font-size: 9px;&quot;&gt;&lt;b&gt;&lt;u&gt;ID_Localidad&lt;/u&gt;&lt;/b&gt;&lt;/font&gt;" style="ellipse;whiteSpace=wrap;html=1;fillColor=#fff2cc;strokeColor=#d6b656;" parent="1" vertex="1">
          <mxGeometry y="1080" width="80" height="50" as="geometry" />
        </mxCell>
        <mxCell id="ipMqHxaG9Kqk90G_pu0r-211" value="" style="endArrow=none;html=1;rounded=0;exitX=1;exitY=0;exitDx=0;exitDy=0;entryX=-0.007;entryY=0.67;entryDx=0;entryDy=0;entryPerimeter=0;" parent="1" source="ipMqHxaG9Kqk90G_pu0r-210" target="ipMqHxaG9Kqk90G_pu0r-12" edge="1">
          <mxGeometry width="50" height="50" relative="1" as="geometry">
            <mxPoint x="674" y="1125" as="sourcePoint" />
            <mxPoint x="700" y="960" as="targetPoint" />
          </mxGeometry>
        </mxCell>
        <mxCell id="ipMqHxaG9Kqk90G_pu0r-212" value="&lt;font style=&quot;font-size: 9px;&quot;&gt;Ciudad&lt;/font&gt;" style="ellipse;whiteSpace=wrap;html=1;fillColor=#fff2cc;strokeColor=#d6b656;" parent="1" vertex="1">
          <mxGeometry x="70" y="1117" width="80" height="50" as="geometry" />
        </mxCell>
        <mxCell id="ipMqHxaG9Kqk90G_pu0r-213" value="" style="endArrow=none;html=1;rounded=0;exitX=0.5;exitY=0;exitDx=0;exitDy=0;entryX=0.1;entryY=1;entryDx=0;entryDy=0;entryPerimeter=0;" parent="1" source="ipMqHxaG9Kqk90G_pu0r-212" target="ipMqHxaG9Kqk90G_pu0r-12" edge="1">
          <mxGeometry width="50" height="50" relative="1" as="geometry">
            <mxPoint x="684" y="1135" as="sourcePoint" />
            <mxPoint x="710" y="970" as="targetPoint" />
          </mxGeometry>
        </mxCell>
        <mxCell id="ipMqHxaG9Kqk90G_pu0r-214" value="&lt;font style=&quot;font-size: 9px;&quot;&gt;Provincia&lt;/font&gt;" style="ellipse;whiteSpace=wrap;html=1;fillColor=#fff2cc;strokeColor=#d6b656;" parent="1" vertex="1">
          <mxGeometry x="186.5" y="1114" width="80" height="50" as="geometry" />
        </mxCell>
        <mxCell id="ipMqHxaG9Kqk90G_pu0r-215" value="" style="endArrow=none;html=1;rounded=0;exitX=0;exitY=0;exitDx=0;exitDy=0;entryX=1;entryY=1;entryDx=0;entryDy=0;" parent="1" source="ipMqHxaG9Kqk90G_pu0r-214" target="ipMqHxaG9Kqk90G_pu0r-12" edge="1">
          <mxGeometry width="50" height="50" relative="1" as="geometry">
            <mxPoint x="694" y="1145" as="sourcePoint" />
            <mxPoint x="720" y="980" as="targetPoint" />
          </mxGeometry>
        </mxCell>
        <mxCell id="ipMqHxaG9Kqk90G_pu0r-216" value="&lt;font style=&quot;font-size: 9px;&quot;&gt;Región&lt;/font&gt;" style="ellipse;whiteSpace=wrap;html=1;fillColor=#fff2cc;strokeColor=#d6b656;" parent="1" vertex="1">
          <mxGeometry x="280" y="1110" width="80" height="50" as="geometry" />
        </mxCell>
        <mxCell id="ipMqHxaG9Kqk90G_pu0r-217" value="" style="endArrow=none;html=1;rounded=0;entryX=1;entryY=0.75;entryDx=0;entryDy=0;" parent="1" source="ipMqHxaG9Kqk90G_pu0r-216" target="ipMqHxaG9Kqk90G_pu0r-12" edge="1">
          <mxGeometry width="50" height="50" relative="1" as="geometry">
            <mxPoint x="284" y="1215" as="sourcePoint" />
            <mxPoint x="310" y="1050" as="targetPoint" />
          </mxGeometry>
        </mxCell>
        <mxCell id="ipMqHxaG9Kqk90G_pu0r-219" value="&lt;font style=&quot;font-size: 10px;&quot;&gt;Ubican&lt;/font&gt;" style="rhombus;whiteSpace=wrap;html=1;fillColor=#ffe6cc;strokeColor=#d79b00;" parent="1" vertex="1">
          <mxGeometry x="520" y="1040" width="80" height="80" as="geometry" />
        </mxCell>
        <mxCell id="ipMqHxaG9Kqk90G_pu0r-220" value="" style="endArrow=none;html=1;rounded=0;exitX=1;exitY=0.75;exitDx=0;exitDy=0;entryX=0;entryY=0.5;entryDx=0;entryDy=0;" parent="1" source="ipMqHxaG9Kqk90G_pu0r-12" target="ipMqHxaG9Kqk90G_pu0r-219" edge="1">
          <mxGeometry width="50" height="50" relative="1" as="geometry">
            <mxPoint x="420" y="890" as="sourcePoint" />
            <mxPoint x="470" y="840" as="targetPoint" />
          </mxGeometry>
        </mxCell>
        <mxCell id="ipMqHxaG9Kqk90G_pu0r-221" value="" style="endArrow=none;html=1;rounded=0;entryX=0.5;entryY=1;entryDx=0;entryDy=0;exitX=0.5;exitY=0;exitDx=0;exitDy=0;" parent="1" source="ipMqHxaG9Kqk90G_pu0r-219" target="ipMqHxaG9Kqk90G_pu0r-5" edge="1">
          <mxGeometry width="50" height="50" relative="1" as="geometry">
            <mxPoint x="420" y="890" as="sourcePoint" />
            <mxPoint x="470" y="840" as="targetPoint" />
            <Array as="points">
              <mxPoint x="560" y="730" />
            </Array>
          </mxGeometry>
        </mxCell>
        <mxCell id="ipMqHxaG9Kqk90G_pu0r-222" value="&lt;font style=&quot;font-size: 9px;&quot;&gt;Tipo_Proveedor&lt;/font&gt;" style="ellipse;whiteSpace=wrap;html=1;fillColor=#fff2cc;strokeColor=#d6b656;" parent="1" vertex="1">
          <mxGeometry x="260" y="825" width="80" height="50" as="geometry" />
        </mxCell>
        <mxCell id="ipMqHxaG9Kqk90G_pu0r-223" value="" style="endArrow=none;html=1;rounded=0;exitX=1;exitY=0.5;exitDx=0;exitDy=0;entryX=0;entryY=0.25;entryDx=0;entryDy=0;" parent="1" source="ipMqHxaG9Kqk90G_pu0r-222" target="ipMqHxaG9Kqk90G_pu0r-4" edge="1">
          <mxGeometry width="50" height="50" relative="1" as="geometry">
            <mxPoint x="770" y="1115" as="sourcePoint" />
            <mxPoint x="348" y="881" as="targetPoint" />
          </mxGeometry>
        </mxCell>
        <mxCell id="ipMqHxaG9Kqk90G_pu0r-224" value="&lt;font style=&quot;font-size: 9px;&quot;&gt;Denominacion_&lt;/font&gt;&lt;div&gt;&lt;font style=&quot;font-size: 9px;&quot;&gt;Social&lt;/font&gt;&lt;/div&gt;" style="ellipse;whiteSpace=wrap;html=1;fillColor=#fff2cc;strokeColor=#d6b656;" parent="1" vertex="1">
          <mxGeometry x="260" y="880" width="80" height="50" as="geometry" />
        </mxCell>
        <mxCell id="ipMqHxaG9Kqk90G_pu0r-225" value="" style="endArrow=none;html=1;rounded=0;exitX=1;exitY=0.5;exitDx=0;exitDy=0;entryX=0;entryY=0.5;entryDx=0;entryDy=0;" parent="1" source="ipMqHxaG9Kqk90G_pu0r-224" target="ipMqHxaG9Kqk90G_pu0r-4" edge="1">
          <mxGeometry width="50" height="50" relative="1" as="geometry">
            <mxPoint x="780" y="1125" as="sourcePoint" />
            <mxPoint x="730" y="970" as="targetPoint" />
          </mxGeometry>
        </mxCell>
        <mxCell id="ipMqHxaG9Kqk90G_pu0r-226" value="&lt;font style=&quot;font-size: 9px;&quot;&gt;ID_Localidad&lt;/font&gt;" style="ellipse;whiteSpace=wrap;html=1;fillColor=#fff2cc;strokeColor=#d6b656;" parent="1" vertex="1">
          <mxGeometry x="470" y="990" width="80" height="50" as="geometry" />
        </mxCell>
        <mxCell id="ipMqHxaG9Kqk90G_pu0r-227" value="" style="endArrow=none;html=1;rounded=0;exitX=0.5;exitY=0;exitDx=0;exitDy=0;entryX=1;entryY=1;entryDx=0;entryDy=0;" parent="1" source="ipMqHxaG9Kqk90G_pu0r-226" target="ipMqHxaG9Kqk90G_pu0r-4" edge="1">
          <mxGeometry width="50" height="50" relative="1" as="geometry">
            <mxPoint x="790" y="1135" as="sourcePoint" />
            <mxPoint x="740" y="980" as="targetPoint" />
          </mxGeometry>
        </mxCell>
        <mxCell id="ipMqHxaG9Kqk90G_pu0r-228" value="&lt;font style=&quot;font-size: 9px;&quot;&gt;ID_Proveedor&lt;/font&gt;" style="ellipse;whiteSpace=wrap;html=1;fillColor=#fff2cc;strokeColor=#d6b656;" parent="1" vertex="1">
          <mxGeometry x="290" y="760" width="80" height="50" as="geometry" />
        </mxCell>
        <mxCell id="ipMqHxaG9Kqk90G_pu0r-229" value="" style="endArrow=none;html=1;rounded=0;exitX=0.5;exitY=1;exitDx=0;exitDy=0;entryX=0.25;entryY=0;entryDx=0;entryDy=0;" parent="1" source="ipMqHxaG9Kqk90G_pu0r-228" target="ipMqHxaG9Kqk90G_pu0r-4" edge="1">
          <mxGeometry width="50" height="50" relative="1" as="geometry">
            <mxPoint x="800" y="1145" as="sourcePoint" />
            <mxPoint x="750" y="990" as="targetPoint" />
          </mxGeometry>
        </mxCell>
        <mxCell id="ipMqHxaG9Kqk90G_pu0r-230" value="&lt;font style=&quot;font-size: 9px;&quot;&gt;Razon_Social&lt;/font&gt;" style="ellipse;whiteSpace=wrap;html=1;fillColor=#fff2cc;strokeColor=#d6b656;" parent="1" vertex="1">
          <mxGeometry x="210" y="970" width="80" height="50" as="geometry" />
        </mxCell>
        <mxCell id="ipMqHxaG9Kqk90G_pu0r-231" value="" style="endArrow=none;html=1;rounded=0;exitX=0.5;exitY=0;exitDx=0;exitDy=0;entryX=0;entryY=1;entryDx=0;entryDy=0;" parent="1" source="ipMqHxaG9Kqk90G_pu0r-230" target="ipMqHxaG9Kqk90G_pu0r-4" edge="1">
          <mxGeometry width="50" height="50" relative="1" as="geometry">
            <mxPoint x="810" y="1155" as="sourcePoint" />
            <mxPoint x="760" y="1000" as="targetPoint" />
          </mxGeometry>
        </mxCell>
        <mxCell id="ipMqHxaG9Kqk90G_pu0r-232" value="&lt;font style=&quot;font-size: 9px;&quot;&gt;ID_Contacto&lt;/font&gt;" style="ellipse;whiteSpace=wrap;html=1;fillColor=#fff2cc;strokeColor=#d6b656;" parent="1" vertex="1">
          <mxGeometry x="400" y="960" width="80" height="50" as="geometry" />
        </mxCell>
        <mxCell id="ipMqHxaG9Kqk90G_pu0r-233" value="" style="endArrow=none;html=1;rounded=0;exitX=0.5;exitY=0;exitDx=0;exitDy=0;entryX=0.87;entryY=1.01;entryDx=0;entryDy=0;entryPerimeter=0;" parent="1" source="ipMqHxaG9Kqk90G_pu0r-232" target="ipMqHxaG9Kqk90G_pu0r-4" edge="1">
          <mxGeometry width="50" height="50" relative="1" as="geometry">
            <mxPoint x="820" y="1165" as="sourcePoint" />
            <mxPoint x="770" y="1010" as="targetPoint" />
          </mxGeometry>
        </mxCell>
        <mxCell id="ipMqHxaG9Kqk90G_pu0r-234" value="&lt;font style=&quot;font-size: 9px;&quot;&gt;CUIT&lt;/font&gt;" style="ellipse;whiteSpace=wrap;html=1;fillColor=#fff2cc;strokeColor=#d6b656;" parent="1" vertex="1">
          <mxGeometry x="300" y="960" width="80" height="50" as="geometry" />
        </mxCell>
        <mxCell id="ipMqHxaG9Kqk90G_pu0r-235" value="" style="endArrow=none;html=1;rounded=0;exitX=0.5;exitY=0;exitDx=0;exitDy=0;entryX=0.25;entryY=1;entryDx=0;entryDy=0;" parent="1" source="ipMqHxaG9Kqk90G_pu0r-234" target="ipMqHxaG9Kqk90G_pu0r-4" edge="1">
          <mxGeometry width="50" height="50" relative="1" as="geometry">
            <mxPoint x="830" y="1175" as="sourcePoint" />
            <mxPoint x="780" y="1020" as="targetPoint" />
          </mxGeometry>
        </mxCell>
        <mxCell id="ipMqHxaG9Kqk90G_pu0r-236" value="&lt;font style=&quot;font-size: 9px;&quot;&gt;Direccion&lt;/font&gt;" style="ellipse;whiteSpace=wrap;html=1;fillColor=#fff2cc;strokeColor=#d6b656;" parent="1" vertex="1">
          <mxGeometry x="476" y="933" width="80" height="50" as="geometry" />
        </mxCell>
        <mxCell id="ipMqHxaG9Kqk90G_pu0r-237" value="" style="endArrow=none;html=1;rounded=0;exitX=0;exitY=0;exitDx=0;exitDy=0;entryX=1;entryY=0.75;entryDx=0;entryDy=0;" parent="1" source="ipMqHxaG9Kqk90G_pu0r-236" target="ipMqHxaG9Kqk90G_pu0r-4" edge="1">
          <mxGeometry width="50" height="50" relative="1" as="geometry">
            <mxPoint x="840" y="1185" as="sourcePoint" />
            <mxPoint x="790" y="1030" as="targetPoint" />
          </mxGeometry>
        </mxCell>
        <mxCell id="ipMqHxaG9Kqk90G_pu0r-241" value="&lt;font style=&quot;font-size: 9px;&quot;&gt;Edad&lt;/font&gt;" style="ellipse;whiteSpace=wrap;html=1;fillColor=#fff2cc;strokeColor=#d6b656;dashed=1;" parent="1" vertex="1">
          <mxGeometry x="60" y="960" width="80" height="50" as="geometry" />
        </mxCell>
        <mxCell id="ipMqHxaG9Kqk90G_pu0r-242" value="" style="endArrow=none;html=1;rounded=0;exitX=0.5;exitY=0;exitDx=0;exitDy=0;entryX=0.5;entryY=1;entryDx=0;entryDy=0;" parent="1" source="ipMqHxaG9Kqk90G_pu0r-241" target="ipMqHxaG9Kqk90G_pu0r-2" edge="1">
          <mxGeometry width="50" height="50" relative="1" as="geometry">
            <mxPoint x="674" y="1125" as="sourcePoint" />
            <mxPoint x="700" y="960" as="targetPoint" />
          </mxGeometry>
        </mxCell>
        <mxCell id="ipMqHxaG9Kqk90G_pu0r-244" value="" style="endArrow=none;html=1;rounded=0;exitX=1;exitY=0.5;exitDx=0;exitDy=0;entryX=0.5;entryY=0;entryDx=0;entryDy=0;" parent="1" source="ipMqHxaG9Kqk90G_pu0r-243" target="ipMqHxaG9Kqk90G_pu0r-2" edge="1">
          <mxGeometry width="50" height="50" relative="1" as="geometry">
            <mxPoint x="684" y="1135" as="sourcePoint" />
            <mxPoint x="710" y="970" as="targetPoint" />
          </mxGeometry>
        </mxCell>
        <mxCell id="ipMqHxaG9Kqk90G_pu0r-245" value="&lt;font style=&quot;font-size: 9px;&quot;&gt;&lt;b&gt;&lt;u&gt;ID_Vendedor&lt;/u&gt;&lt;/b&gt;&lt;/font&gt;" style="ellipse;whiteSpace=wrap;html=1;fillColor=#fff2cc;strokeColor=#d6b656;" parent="1" vertex="1">
          <mxGeometry x="110" y="710" width="80" height="50" as="geometry" />
        </mxCell>
        <mxCell id="ipMqHxaG9Kqk90G_pu0r-247" value="&lt;font style=&quot;font-size: 9px;&quot;&gt;Especialidad_De_&lt;/font&gt;&lt;div&gt;&lt;font style=&quot;font-size: 9px;&quot;&gt;Venta&lt;/font&gt;&lt;/div&gt;" style="ellipse;whiteSpace=wrap;html=1;fillColor=#fff2cc;strokeColor=#d6b656;" parent="1" vertex="1">
          <mxGeometry x="40" y="800" width="80" height="50" as="geometry" />
        </mxCell>
        <mxCell id="ipMqHxaG9Kqk90G_pu0r-248" value="" style="endArrow=none;html=1;rounded=0;exitX=1;exitY=0;exitDx=0;exitDy=0;entryX=0;entryY=0.25;entryDx=0;entryDy=0;" parent="1" source="ipMqHxaG9Kqk90G_pu0r-247" target="ipMqHxaG9Kqk90G_pu0r-2" edge="1">
          <mxGeometry width="50" height="50" relative="1" as="geometry">
            <mxPoint x="704" y="1155" as="sourcePoint" />
            <mxPoint x="730" y="990" as="targetPoint" />
          </mxGeometry>
        </mxCell>
        <mxCell id="ipMqHxaG9Kqk90G_pu0r-249" value="&lt;font style=&quot;font-size: 9px;&quot;&gt;Vendedor&lt;/font&gt;" style="ellipse;whiteSpace=wrap;html=1;fillColor=#fff2cc;strokeColor=#d6b656;" parent="1" vertex="1">
          <mxGeometry x="210" y="770" width="80" height="50" as="geometry" />
        </mxCell>
        <mxCell id="ipMqHxaG9Kqk90G_pu0r-250" value="" style="endArrow=none;html=1;rounded=0;exitX=0;exitY=0.5;exitDx=0;exitDy=0;entryX=1;entryY=0.25;entryDx=0;entryDy=0;" parent="1" source="ipMqHxaG9Kqk90G_pu0r-249" target="ipMqHxaG9Kqk90G_pu0r-2" edge="1">
          <mxGeometry width="50" height="50" relative="1" as="geometry">
            <mxPoint x="714" y="1165" as="sourcePoint" />
            <mxPoint x="740" y="1000" as="targetPoint" />
          </mxGeometry>
        </mxCell>
        <mxCell id="ipMqHxaG9Kqk90G_pu0r-251" value="&lt;font style=&quot;font-size: 9px;&quot;&gt;Tipo_Documento&lt;/font&gt;" style="ellipse;whiteSpace=wrap;html=1;fillColor=#fff2cc;strokeColor=#d6b656;" parent="1" vertex="1">
          <mxGeometry x="186.5" y="860" width="80" height="50" as="geometry" />
        </mxCell>
        <mxCell id="ipMqHxaG9Kqk90G_pu0r-252" value="" style="endArrow=none;html=1;rounded=0;exitX=0.5;exitY=0;exitDx=0;exitDy=0;entryX=0.995;entryY=0.655;entryDx=0;entryDy=0;entryPerimeter=0;" parent="1" source="ipMqHxaG9Kqk90G_pu0r-251" target="ipMqHxaG9Kqk90G_pu0r-2" edge="1">
          <mxGeometry width="50" height="50" relative="1" as="geometry">
            <mxPoint x="724" y="1175" as="sourcePoint" />
            <mxPoint x="750" y="1010" as="targetPoint" />
          </mxGeometry>
        </mxCell>
        <mxCell id="ipMqHxaG9Kqk90G_pu0r-253" value="&lt;font style=&quot;font-size: 9px;&quot;&gt;Legajo&lt;/font&gt;" style="ellipse;whiteSpace=wrap;html=1;fillColor=#fff2cc;strokeColor=#d6b656;" parent="1" vertex="1">
          <mxGeometry x="192.5" y="720" width="80" height="50" as="geometry" />
        </mxCell>
        <mxCell id="ipMqHxaG9Kqk90G_pu0r-254" value="" style="endArrow=none;html=1;rounded=0;exitX=0.069;exitY=0.704;exitDx=0;exitDy=0;entryX=0.845;entryY=-0.015;entryDx=0;entryDy=0;entryPerimeter=0;exitPerimeter=0;" parent="1" source="ipMqHxaG9Kqk90G_pu0r-253" target="ipMqHxaG9Kqk90G_pu0r-2" edge="1">
          <mxGeometry width="50" height="50" relative="1" as="geometry">
            <mxPoint x="734" y="1185" as="sourcePoint" />
            <mxPoint x="760" y="1020" as="targetPoint" />
          </mxGeometry>
        </mxCell>
        <mxCell id="ipMqHxaG9Kqk90G_pu0r-255" value="&lt;font style=&quot;font-size: 9px;&quot;&gt;ID_Localidad&lt;/font&gt;" style="ellipse;whiteSpace=wrap;html=1;fillColor=#fff2cc;strokeColor=#d6b656;" parent="1" vertex="1">
          <mxGeometry x="50" y="860" width="80" height="50" as="geometry" />
        </mxCell>
        <mxCell id="ipMqHxaG9Kqk90G_pu0r-256" value="" style="endArrow=none;html=1;rounded=0;exitX=0.5;exitY=0;exitDx=0;exitDy=0;entryX=-0.015;entryY=0.905;entryDx=0;entryDy=0;entryPerimeter=0;" parent="1" source="ipMqHxaG9Kqk90G_pu0r-255" target="ipMqHxaG9Kqk90G_pu0r-2" edge="1">
          <mxGeometry width="50" height="50" relative="1" as="geometry">
            <mxPoint x="744" y="1195" as="sourcePoint" />
            <mxPoint x="770" y="1030" as="targetPoint" />
          </mxGeometry>
        </mxCell>
        <mxCell id="ipMqHxaG9Kqk90G_pu0r-257" value="&lt;font style=&quot;font-size: 9px;&quot;&gt;Domicilio&lt;/font&gt;" style="ellipse;whiteSpace=wrap;html=1;fillColor=#fff2cc;strokeColor=#d6b656;" parent="1" vertex="1">
          <mxGeometry x="70" y="910" width="80" height="50" as="geometry" />
        </mxCell>
        <mxCell id="ipMqHxaG9Kqk90G_pu0r-258" value="" style="endArrow=none;html=1;rounded=0;exitX=0.5;exitY=0;exitDx=0;exitDy=0;entryX=0.5;entryY=1;entryDx=0;entryDy=0;" parent="1" source="ipMqHxaG9Kqk90G_pu0r-257" target="ipMqHxaG9Kqk90G_pu0r-2" edge="1">
          <mxGeometry width="50" height="50" relative="1" as="geometry">
            <mxPoint x="754" y="1205" as="sourcePoint" />
            <mxPoint x="780" y="1040" as="targetPoint" />
          </mxGeometry>
        </mxCell>
        <mxCell id="ipMqHxaG9Kqk90G_pu0r-259" value="&lt;font style=&quot;font-size: 9px;&quot;&gt;DOC_N°&lt;/font&gt;" style="ellipse;whiteSpace=wrap;html=1;fillColor=#fff2cc;strokeColor=#d6b656;" parent="1" vertex="1">
          <mxGeometry x="160" y="910" width="80" height="50" as="geometry" />
        </mxCell>
        <mxCell id="ipMqHxaG9Kqk90G_pu0r-260" value="" style="endArrow=none;html=1;rounded=0;exitX=0.5;exitY=0;exitDx=0;exitDy=0;entryX=0.5;entryY=1;entryDx=0;entryDy=0;" parent="1" source="ipMqHxaG9Kqk90G_pu0r-259" target="ipMqHxaG9Kqk90G_pu0r-2" edge="1">
          <mxGeometry width="50" height="50" relative="1" as="geometry">
            <mxPoint x="764" y="1215" as="sourcePoint" />
            <mxPoint x="790" y="1050" as="targetPoint" />
          </mxGeometry>
        </mxCell>
        <mxCell id="ipMqHxaG9Kqk90G_pu0r-261" value="&lt;font style=&quot;font-size: 9px;&quot;&gt;Fecha_Nacimiento&lt;/font&gt;" style="ellipse;whiteSpace=wrap;html=1;fillColor=#fff2cc;strokeColor=#d6b656;" parent="1" vertex="1">
          <mxGeometry x="120" y="960" width="80" height="50" as="geometry" />
        </mxCell>
        <mxCell id="ipMqHxaG9Kqk90G_pu0r-262" value="" style="endArrow=none;html=1;rounded=0;exitX=0.5;exitY=0;exitDx=0;exitDy=0;entryX=0.5;entryY=1;entryDx=0;entryDy=0;" parent="1" source="ipMqHxaG9Kqk90G_pu0r-261" target="ipMqHxaG9Kqk90G_pu0r-2" edge="1">
          <mxGeometry width="50" height="50" relative="1" as="geometry">
            <mxPoint x="774" y="1225" as="sourcePoint" />
            <mxPoint x="800" y="1060" as="targetPoint" />
          </mxGeometry>
        </mxCell>
        <mxCell id="ipMqHxaG9Kqk90G_pu0r-263" value="" style="endArrow=none;html=1;rounded=0;exitX=0.5;exitY=0;exitDx=0;exitDy=0;entryX=0;entryY=0.5;entryDx=0;entryDy=0;" parent="1" source="ipMqHxaG9Kqk90G_pu0r-143" target="ipMqHxaG9Kqk90G_pu0r-11" edge="1">
          <mxGeometry width="50" height="50" relative="1" as="geometry">
            <mxPoint x="40" y="708" as="sourcePoint" />
            <mxPoint x="110" y="600" as="targetPoint" />
            <Array as="points">
              <mxPoint x="40" y="600" />
            </Array>
          </mxGeometry>
        </mxCell>
        <mxCell id="ipMqHxaG9Kqk90G_pu0r-154" value="&lt;font style=&quot;font-size: 9px;&quot;&gt;ID_Localidad&lt;/font&gt;" style="ellipse;whiteSpace=wrap;html=1;fillColor=#fff2cc;strokeColor=#d6b656;" parent="1" vertex="1">
          <mxGeometry y="535" width="80" height="50" as="geometry" />
        </mxCell>
        <mxCell id="ipMqHxaG9Kqk90G_pu0r-264" value="" style="endArrow=none;html=1;rounded=0;entryX=0.5;entryY=1;entryDx=0;entryDy=0;exitX=0.5;exitY=0;exitDx=0;exitDy=0;" parent="1" source="ipMqHxaG9Kqk90G_pu0r-2" target="ipMqHxaG9Kqk90G_pu0r-245" edge="1">
          <mxGeometry width="50" height="50" relative="1" as="geometry">
            <mxPoint x="420" y="890" as="sourcePoint" />
            <mxPoint x="470" y="840" as="targetPoint" />
          </mxGeometry>
        </mxCell>
        <mxCell id="ipMqHxaG9Kqk90G_pu0r-266" value="" style="ellipse;whiteSpace=wrap;html=1;fillColor=none;" parent="1" vertex="1">
          <mxGeometry x="307.5" y="965" width="62.5" height="40" as="geometry" />
        </mxCell>
        <mxCell id="ipMqHxaG9Kqk90G_pu0r-267" value="" style="ellipse;whiteSpace=wrap;html=1;fillColor=none;" parent="1" vertex="1">
          <mxGeometry x="201.25" y="725" width="62.5" height="40" as="geometry" />
        </mxCell>
        <mxCell id="ipMqHxaG9Kqk90G_pu0r-268" value="" style="ellipse;whiteSpace=wrap;html=1;fillColor=none;" parent="1" vertex="1">
          <mxGeometry x="191" y="865" width="71" height="40" as="geometry" />
        </mxCell>
        <mxCell id="ipMqHxaG9Kqk90G_pu0r-271" value="N" style="rounded=0;whiteSpace=wrap;html=1;fillColor=none;" parent="1" vertex="1">
          <mxGeometry x="87" y="327" width="20" height="20" as="geometry" />
        </mxCell>
        <mxCell id="ipMqHxaG9Kqk90G_pu0r-272" value="N" style="rounded=0;whiteSpace=wrap;html=1;fillColor=none;" parent="1" vertex="1">
          <mxGeometry x="192.5" y="327" width="20" height="20" as="geometry" />
        </mxCell>
        <mxCell id="ipMqHxaG9Kqk90G_pu0r-273" value="1" style="rounded=0;whiteSpace=wrap;html=1;fillColor=none;" parent="1" vertex="1">
          <mxGeometry x="86" y="47" width="20" height="20" as="geometry" />
        </mxCell>
        <mxCell id="ipMqHxaG9Kqk90G_pu0r-274" value="1" style="rounded=0;whiteSpace=wrap;html=1;fillColor=none;" parent="1" vertex="1">
          <mxGeometry x="192.5" y="47" width="20" height="20" as="geometry" />
        </mxCell>
        <mxCell id="ipMqHxaG9Kqk90G_pu0r-275" value="1" style="rounded=0;whiteSpace=wrap;html=1;fillColor=none;" parent="1" vertex="1">
          <mxGeometry x="377" y="47" width="20" height="20" as="geometry" />
        </mxCell>
        <mxCell id="ipMqHxaG9Kqk90G_pu0r-277" value="N" style="rounded=0;whiteSpace=wrap;html=1;fillColor=none;" parent="1" vertex="1">
          <mxGeometry x="427" y="377" width="20" height="20" as="geometry" />
        </mxCell>
        <mxCell id="ipMqHxaG9Kqk90G_pu0r-278" value="N" style="rounded=0;whiteSpace=wrap;html=1;fillColor=none;" parent="1" vertex="1">
          <mxGeometry x="192.5" y="603" width="20" height="20" as="geometry" />
        </mxCell>
        <mxCell id="ipMqHxaG9Kqk90G_pu0r-279" value="N" style="rounded=0;whiteSpace=wrap;html=1;fillColor=none;" parent="1" vertex="1">
          <mxGeometry x="386" y="445" width="20" height="20" as="geometry" />
        </mxCell>
        <mxCell id="ipMqHxaG9Kqk90G_pu0r-280" value="1" style="rounded=0;whiteSpace=wrap;html=1;fillColor=none;" parent="1" vertex="1">
          <mxGeometry x="713" y="847" width="20" height="20" as="geometry" />
        </mxCell>
        <mxCell id="ipMqHxaG9Kqk90G_pu0r-281" value="1" style="rounded=0;whiteSpace=wrap;html=1;fillColor=none;" parent="1" vertex="1">
          <mxGeometry x="137" y="643" width="20" height="20" as="geometry" />
        </mxCell>
        <mxCell id="ipMqHxaG9Kqk90G_pu0r-282" value="N" style="rounded=0;whiteSpace=wrap;html=1;fillColor=none;" parent="1" vertex="1">
          <mxGeometry x="86" y="604" width="20" height="20" as="geometry" />
        </mxCell>
        <mxCell id="ipMqHxaG9Kqk90G_pu0r-283" value="1" style="rounded=0;whiteSpace=wrap;html=1;fillColor=none;" parent="1" vertex="1">
          <mxGeometry x="86" y="1036" width="20" height="20" as="geometry" />
        </mxCell>
        <mxCell id="ipMqHxaG9Kqk90G_pu0r-284" value="1" style="rounded=0;whiteSpace=wrap;html=1;fillColor=none;" parent="1" vertex="1">
          <mxGeometry x="647" y="894" width="20" height="20" as="geometry" />
        </mxCell>
        <mxCell id="ipMqHxaG9Kqk90G_pu0r-285" value="1" style="rounded=0;whiteSpace=wrap;html=1;fillColor=none;" parent="1" vertex="1">
          <mxGeometry x="434" y="894" width="20" height="20" as="geometry" />
        </mxCell>
        <mxCell id="ipMqHxaG9Kqk90G_pu0r-286" value="N" style="rounded=0;whiteSpace=wrap;html=1;fillColor=none;" parent="1" vertex="1">
          <mxGeometry x="366" y="933" width="20" height="20" as="geometry" />
        </mxCell>
        <mxCell id="ipMqHxaG9Kqk90G_pu0r-287" value="1" style="rounded=0;whiteSpace=wrap;html=1;fillColor=none;" parent="1" vertex="1">
          <mxGeometry x="192.5" y="1044" width="20" height="20" as="geometry" />
        </mxCell>
        <mxCell id="ipMqHxaG9Kqk90G_pu0r-288" value="N" style="rounded=0;whiteSpace=wrap;html=1;fillColor=none;" parent="1" vertex="1">
          <mxGeometry x="130" y="285" width="20" height="20" as="geometry" />
        </mxCell>
        <mxCell id="ipMqHxaG9Kqk90G_pu0r-289" value="1" style="rounded=0;whiteSpace=wrap;html=1;fillColor=none;" parent="1" vertex="1">
          <mxGeometry x="626" y="107" width="20" height="20" as="geometry" />
        </mxCell>
        <mxCell id="ipMqHxaG9Kqk90G_pu0r-291" value="N" style="rounded=0;whiteSpace=wrap;html=1;fillColor=none;" parent="1" vertex="1">
          <mxGeometry x="434" y="483" width="20" height="20" as="geometry" />
        </mxCell>
        <mxCell id="ipMqHxaG9Kqk90G_pu0r-294" value="1" style="rounded=0;whiteSpace=wrap;html=1;fillColor=none;" parent="1" vertex="1">
          <mxGeometry x="202.25" y="824" width="20" height="20" as="geometry" />
        </mxCell>
        <mxCell id="ipMqHxaG9Kqk90G_pu0r-295" value="N" style="rounded=0;whiteSpace=wrap;html=1;fillColor=none;" parent="1" vertex="1">
          <mxGeometry x="200.25" y="287" width="20" height="20" as="geometry" />
        </mxCell>
        <mxCell id="ipMqHxaG9Kqk90G_pu0r-296" value="1" style="rounded=0;whiteSpace=wrap;html=1;fillColor=none;" parent="1" vertex="1">
          <mxGeometry x="646" y="366" width="20" height="20" as="geometry" />
        </mxCell>
        <mxCell id="FUfsy1X6bLAwmgYhhmSV-1" value="" style="endArrow=none;html=1;rounded=0;exitX=1;exitY=0.5;exitDx=0;exitDy=0;" parent="1" edge="1">
          <mxGeometry width="50" height="50" relative="1" as="geometry">
            <mxPoint x="320" y="560" as="sourcePoint" />
            <mxPoint x="300" y="510" as="targetPoint" />
          </mxGeometry>
        </mxCell>
        <mxCell id="FUfsy1X6bLAwmgYhhmSV-3" value="&lt;font style=&quot;font-size: 10px;&quot;&gt;&lt;b&gt;Tabla de Int.&lt;/b&gt;&lt;/font&gt;&lt;div&gt;&lt;font style=&quot;font-size: 10px;&quot;&gt;&lt;b&gt;ID_Cliente&lt;/b&gt;&lt;/font&gt;&lt;/div&gt;&lt;div&gt;&lt;font style=&quot;font-size: 10px;&quot;&gt;&lt;b&gt;ID_Venta&lt;/b&gt;&lt;/font&gt;&lt;/div&gt;" style="text;html=1;align=center;verticalAlign=middle;whiteSpace=wrap;rounded=0;" parent="1" vertex="1">
          <mxGeometry x="250" y="470" width="60" height="30" as="geometry" />
        </mxCell>
        <mxCell id="FUfsy1X6bLAwmgYhhmSV-5" value="" style="endArrow=none;html=1;rounded=0;exitX=0.5;exitY=0;exitDx=0;exitDy=0;" parent="1" source="ipMqHxaG9Kqk90G_pu0r-46" edge="1">
          <mxGeometry width="50" height="50" relative="1" as="geometry">
            <mxPoint x="390" y="530" as="sourcePoint" />
            <mxPoint x="380" y="280" as="targetPoint" />
          </mxGeometry>
        </mxCell>
        <mxCell id="FUfsy1X6bLAwmgYhhmSV-7" value="&lt;font style=&quot;font-size: 10px;&quot;&gt;&lt;b&gt;Tabla de Int.&lt;/b&gt;&lt;/font&gt;&lt;div&gt;&lt;font style=&quot;font-size: 10px;&quot;&gt;&lt;b&gt;ID_Producto&lt;/b&gt;&lt;/font&gt;&lt;/div&gt;&lt;div&gt;&lt;font style=&quot;font-size: 10px;&quot;&gt;&lt;b&gt;ID_Venta&lt;/b&gt;&lt;/font&gt;&lt;/div&gt;" style="text;html=1;align=center;verticalAlign=middle;whiteSpace=wrap;rounded=0;" parent="1" vertex="1">
          <mxGeometry x="384" y="247" width="60" height="30" as="geometry" />
        </mxCell>
        <mxCell id="FUfsy1X6bLAwmgYhhmSV-9" value="1" style="rounded=0;whiteSpace=wrap;html=1;fillColor=none;" parent="1" vertex="1">
          <mxGeometry x="222.5" y="1056" width="20" height="20" as="geometry" />
        </mxCell>
        <mxCell id="FUfsy1X6bLAwmgYhhmSV-10" value="N" style="rounded=0;whiteSpace=wrap;html=1;fillColor=none;" parent="1" vertex="1">
          <mxGeometry x="693" y="700" width="20" height="20" as="geometry" />
        </mxCell>
        <mxCell id="FUfsy1X6bLAwmgYhhmSV-11" value="N" style="rounded=0;whiteSpace=wrap;html=1;fillColor=none;" parent="1" vertex="1">
          <mxGeometry x="494" y="445" width="20" height="20" as="geometry" />
        </mxCell>
        <mxCell id="FUfsy1X6bLAwmgYhhmSV-12" value="1" style="rounded=0;whiteSpace=wrap;html=1;fillColor=none;" parent="1" vertex="1">
          <mxGeometry x="640" y="625" width="20" height="20" as="geometry" />
        </mxCell>
      </root>
    </mxGraphModel>
  </diagram>
</mxfile>
